<svg xmlns="http://www.w3.org/2000/svg" xmlns:xlink="http://www.w3.org/1999/xlink" width="163.641" height="87.752" viewBox="0 0 163.641 87.752"><defs><style>.a,.c{fill:#efd7c4;}.b{clip-path:url(#a);}.c{fill-rule:evenodd;}</style><clipPath id="a"><rect class="a" width="163.641" height="87.752"/></clipPath></defs><g transform="translate(0 0)"><g class="b" transform="translate(0 0)"><path class="c" d="M82.162,52.836a1.315,1.315,0,0,1-.225.772,2.747,2.747,0,0,1-.338.418c-.5.53-1,1.061-1.511,1.591-.627.643-1.254,1.318-1.881,1.961a12.517,12.517,0,0,0-1.591,1.865c-.514.739-1.125,1.431-1.656,2.17a15.7,15.7,0,0,1-1.816,2.041,7.542,7.542,0,0,1-1.029.868c-1.238.788-2.25,1.865-3.456,2.7a8.41,8.41,0,0,0-1.19,1.093c-.852.836-1.752,1.607-2.652,2.363a.931.931,0,0,1-.772.161c-.113-.129-.209-.289-.321-.4a.317.317,0,0,0-.241-.048c-.08.016-.193.064-.209.113-.048.145.064.241.289.257l.53.032a.754.754,0,0,1-.177.5,13.859,13.859,0,0,1-2.315,1.9c-1.013.627-1.961,1.334-2.942,1.993a10.015,10.015,0,0,0-2.411,2.025c-.884.514-1.72.884-2.459,1.415-.723.547-1.511,1-2.234,1.575-1.061.82-2.218,1.559-3.344,2.347a2.811,2.811,0,0,1-.466.289c-1.382.691-2.765,1.382-4.147,2.058a.71.71,0,0,1-.257.1,18.239,18.239,0,0,0-1.833.514,19.435,19.435,0,0,0-3.135.916,4.7,4.7,0,0,1-1.318.273,2.19,2.19,0,0,0-1.045.305c-.386.241-.788.466-1.173.707a.7.7,0,0,1-.739-.129,4.43,4.43,0,0,1-.466-.273,6.225,6.225,0,0,0-1.64-.032c-1.993.016-4,.161-6.012,0a37.971,37.971,0,0,1-3.826-.048,2.714,2.714,0,0,1-1.061-.209c-.659-.289-1.415-.305-2.074-.643-.579-.289-1.254-.273-1.8-.611a9.266,9.266,0,0,1-2.267-.9c-1-.5-1.929-1.045-2.958-1.447a6.537,6.537,0,0,1-1.173-.675c-.386-.241-.723-.579-1.125-.788A9.612,9.612,0,0,1,7,79.7a4.364,4.364,0,0,1-.659-.884c-.852-1.511-1.833-2.926-2.62-4.469-.53-1.061-1.029-2.138-1.527-3.2a24.3,24.3,0,0,1-.932-2.556C1.178,67.576.6,66.692.5,65.7a4.845,4.845,0,0,1-.45-2.122c-.048-2.283-.1-4.549.016-6.832a6.225,6.225,0,0,1,.305-1.881,2.75,2.75,0,0,0,.161-.788c.064-.836.1-1.656.145-2.476A2.3,2.3,0,0,1,.84,50.81a3.73,3.73,0,0,0,.273-1.334c.016-.45.048-.916.08-1.366a4.783,4.783,0,0,1,.257-1.334,3.443,3.443,0,0,0,.241-1.334A6.127,6.127,0,0,1,2.078,43.3c.177-.514.145-1.093.321-1.607a6,6,0,0,0,.37-1.849,7.635,7.635,0,0,1,.161-1.913,18.155,18.155,0,0,0,.627-2.074c.161-.434.305-.868.466-1.334a2.568,2.568,0,0,1,.37-.338A1.5,1.5,0,0,0,5.1,33.08a1.225,1.225,0,0,1,.627-.836,1.98,1.98,0,0,1,.5-.225c.434-.1.9-.145,1.334-.273a4.674,4.674,0,0,1,1.334-.257c.8-.032,1.64-.1,2.459-.113a8.271,8.271,0,0,0,2.154-.289,4.033,4.033,0,0,1,1.077-.129c1.173-.064,2.363-.1,3.536-.161.273-.08.547-.145.8-.225A1.651,1.651,0,0,1,20,30.54a5.7,5.7,0,0,0,1.881.225,2.213,2.213,0,0,0,.8-.064,8.144,8.144,0,0,1,2.974-.321c1.013,0,2.009,0,3.006.032a2.292,2.292,0,0,1,.8.145,4.982,4.982,0,0,0,1.607.289c2.283.032,4.549.1,6.751.129.595.193,1.125.338,1.64.53.4.177.788.434,1.19.643l.177.193a1.662,1.662,0,0,0-.048,1.077c.354.659.37,1.415.675,2.074a4.187,4.187,0,0,1,.161.8c.048.643.08,1.27.113,1.913a4.323,4.323,0,0,0,.048.8,25.293,25.293,0,0,1,.5,5.16,2.385,2.385,0,0,0,.161.8c.273.579.257,1.254.547,1.816a7.965,7.965,0,0,1,.4,1.591c.161.611.45,1.173.579,1.816a9.544,9.544,0,0,0,1.447,2.3,8.731,8.731,0,0,0,1.206,1.109,1.141,1.141,0,0,0,.5.209,10.683,10.683,0,0,0,3.906-.08c.756-.482,1.607-1.013,2.443-1.559a18.688,18.688,0,0,0,2.411-1.784c.273-.241.611-.418.884-.643a3.938,3.938,0,0,0,.579-.579,5.917,5.917,0,0,1,1.3-1.382,20.5,20.5,0,0,0,3.987-4.1A4.456,4.456,0,0,1,64,42.371c.563-.321.981-.8,1.575-1.077.5-.241.981-.5,1.447-.739a9.663,9.663,0,0,1,.852-1.077c1.077-1.013,2.041-2.106,3.151-3.038a2.835,2.835,0,0,0,.595-.563A7.221,7.221,0,0,1,73.562,34c.739-.547,1.382-1.19,2.009-1.752.595-.37,1.125-.707,1.688-1.029a3.1,3.1,0,0,1,.756-.305,2.28,2.28,0,0,0,1.125-.723c.53-.627,1.029-1.286,1.559-1.9.547-.627,1.109-1.222,1.624-1.768.289-.547.547-1.013.788-1.447.209-.675.145-1.318.37-1.929a12.471,12.471,0,0,0,.225-1.9,1,1,0,0,1,.225-.5c.289-.338.579-.691.9-1.013.514-.514,1.029-1.045,1.543-1.543a4.893,4.893,0,0,1,1.27-1.029l.225-.161a25.759,25.759,0,0,1,4.019-2.813,11.713,11.713,0,0,1,2.106-1.286c.723-.386,1.447-.756,2.122-1.206a5.3,5.3,0,0,1,1.222-.579,8.569,8.569,0,0,0,1.72-.852,17.28,17.28,0,0,1,2.588-1.511c1.463-.723,2.926-1.447,4.4-2.17.9-.434,1.833-.772,2.765-1.125.772-.305,1.607-.386,2.347-.723a6.729,6.729,0,0,0,1.865-.45,1.838,1.838,0,0,1,.514-.113,11.709,11.709,0,0,0,2.684-.547,18.171,18.171,0,0,0,2.877-.788,15.541,15.541,0,0,1,2.058-.707,2.573,2.573,0,0,1,.788-.193,10.281,10.281,0,0,0,2.7-.418,2.7,2.7,0,0,1,.82-.064c1.077-.016,2.17-.048,3.263-.016,2.283.048,4.549-.08,6.848-.161a5.654,5.654,0,0,0,1.334-.225,4.778,4.778,0,0,1,2.427-.016,6.023,6.023,0,0,0,1.077.177c2.91.032,5.835.161,8.745.1.4-.016.579-.145.836-.563a4.43,4.43,0,0,1,.273-.466.554.554,0,0,1,.707-.241c.675.273,1.447.193,2.074.611l.82.145a2.822,2.822,0,0,1,.788.193,3.8,3.8,0,0,0,1.591.305c.627.032,1.27.016,1.913.032a4.409,4.409,0,0,1,1.865.386,7.055,7.055,0,0,1,2.009.82,4.069,4.069,0,0,1,1.206,1.077,1.944,1.944,0,0,1,.37,1.013,3.228,3.228,0,0,1-.659,2.315,1.012,1.012,0,0,1-.659.45,10.355,10.355,0,0,0-2.427.4c-.723.016-1.447.032-2.17.064a5.043,5.043,0,0,0-1.881.386,2.84,2.84,0,0,1-1.045.241l-.547.048a3.383,3.383,0,0,0-1.318.321,3.525,3.525,0,0,1-1.865.209.812.812,0,0,1-.563-.53c-.016-.273,0-.547-.016-.82a.859.859,0,0,0-.643-.772,14.75,14.75,0,0,1-1.849-.45,7.606,7.606,0,0,0-1.9-.193,12.109,12.109,0,0,1-1.607-.466c-1.431-.08-2.877-.048-4.34.016a2.627,2.627,0,0,0-.8.113,12.545,12.545,0,0,1-3.1.466l-1.9.772a4.032,4.032,0,0,1-.788.193,7.11,7.11,0,0,0-.8.161c-.5.209-1.029.338-1.543.547a10.307,10.307,0,0,1-1.559.482,1.239,1.239,0,0,0-.482.241,3.745,3.745,0,0,1-1.7.82q-.964.458-1.977.916a24.4,24.4,0,0,0-3.987,1.752,11.717,11.717,0,0,0-1.9,1.077,12.275,12.275,0,0,1-1.173.675A8.194,8.194,0,0,0,117,14.9a29.292,29.292,0,0,0-2.4,1.816,5.266,5.266,0,0,1-1.286,1.013,9.238,9.238,0,0,0-1.688,1.366c-1.4,1.318-2.765,2.652-4.051,4.083-.547.595-1.109,1.19-1.672,1.784-.129.145-.273.273-.37.4a14.806,14.806,0,0,1-1.511,1.929c-.595.579-1.157,1.173-1.72,1.768a1.072,1.072,0,0,0-.209.241c-.418.659-.852,1.35-1.286,2.041a12.89,12.89,0,0,1-.788,2.025,12.458,12.458,0,0,1-.563,1.254,1.2,1.2,0,0,1-.884.579,6.773,6.773,0,0,1-.82.064c-.354.016-.723.048-1,.064a12.088,12.088,0,0,0-1.768.916c-.563.305-1.141.579-1.624.82-.932.756-1.768,1.447-2.6,2.138a3.407,3.407,0,0,0-.932,1.35,2.134,2.134,0,0,0-.129.788c0,.723.048,1.447.048,2.186a.476.476,0,0,1-.289.418l-.257.08.016.016a5.425,5.425,0,0,0-.145-.547,1.34,1.34,0,0,0-1.125-1.013c-.161-.032-.338-.1-.53-.145a1.091,1.091,0,0,1-.193-.193,18.99,18.99,0,0,0-1.688-2.106c-.595-.691-1.093-1.447-1.688-2.138a21.84,21.84,0,0,0-1.7-1.752c-.45-.45-.916-.868-1.4-1.3-.4-.354-.8-.707-1.206-1.077-.627-.161-.964-.788-1.575-1.013a4.536,4.536,0,0,0-.466.289,7.063,7.063,0,0,0-1.141,1.157,3.913,3.913,0,0,1-.611.53c-.482.113-.691.53-.932.916a1.312,1.312,0,0,1-.836.627,1.21,1.21,0,0,0-.675.434,4.432,4.432,0,0,0-.4.707.9.9,0,0,1-.547.563,1.621,1.621,0,0,0-1.093,1.093l-.08.273a2.724,2.724,0,0,1-.948,1.591c-.418.354-.8.739-1.206,1.109-.37.338-.707.305-1.109-.193-.145-.177-.289-.289-.37-.209a.566.566,0,0,0-.129.514.708.708,0,0,0,.032.257,18.1,18.1,0,0,0,1.173,3.022c.305.563.595,1.141.852,1.7A27.392,27.392,0,0,0,71.1,49.975,9.558,9.558,0,0,0,73.1,52.161c.064.048.177.032.257.048.032.1,0,.209.064.257a15.229,15.229,0,0,0,1.672,1.7,1.26,1.26,0,0,0,1.013.241.462.462,0,0,0,.048.257,1.6,1.6,0,0,0,.354.386,5.019,5.019,0,0,0,.691.434c.338.193.434.579.691.82a.335.335,0,0,0,.482-.016,8.736,8.736,0,0,0,.772-.772c.82-.852,1.607-1.72,2.427-2.572a.668.668,0,0,1,.482-.209ZM64.625,53.849c.1.482.113.5.547.563a.35.35,0,0,0,.145.4c.161.08.257-.032.354-.418a.719.719,0,0,1,.595.756l-.048,3.761a1.935,1.935,0,0,0,.1.514c.016.08.1.193.161.193a.339.339,0,0,0,.305-.305,6.641,6.641,0,0,1,.434-2.09V54.717a3,3,0,0,1-.45-1.961.887.887,0,0,1,.482.225c.37.225.466.193.627-.08l.113-.257a.4.4,0,0,1,.225-.129c.048,0,.113.1.129.161a22.14,22.14,0,0,1,.1,3.263A1.674,1.674,0,0,0,69,57.4a1.1,1.1,0,0,1,.193.193,1.372,1.372,0,0,1,.338.723c.048.354.064.723.113,1.077,0,.08.1.161.145.225l.145-.145c.241-.482.08-1.077.338-1.575a.768.768,0,0,0-.161-.981,2.426,2.426,0,0,1-.611-.884c-.129-.338-.273-.659-.418-1-.016-.273-.048-.547-.048-.82-.016-.466-.016-.916-.032-1.366a1.013,1.013,0,0,0-.884-1.157,2.774,2.774,0,0,1-.514-.177.514.514,0,0,1-.289-.418l.5.016.257-.032c.193-.016.289-.466.161-.643a.491.491,0,0,0-.643-.193.338.338,0,0,0-.225.418c.016.161,0,.338,0,.5a1,1,0,0,1-.482-.145,7.238,7.238,0,0,0-.659-.4c0-.723-.032-1.447,0-2.17a.948.948,0,0,1,.579-.82l.257-.1a7.083,7.083,0,0,1,1.688.8c.064.048.177.032.273.032v.45a.7.7,0,0,0,.53.659,2.852,2.852,0,0,0,.08,1.045,1.223,1.223,0,0,0,.241.45.365.365,0,0,0,.45.048.3.3,0,0,0,.177-.418,1.925,1.925,0,0,0-.739-1.029c-.064-.048-.177-.032-.257-.048l-.016-.466a.637.637,0,0,0-.53-.643,2.04,2.04,0,0,0-.1-.772c-.563-1.222-1.173-2.4-1.768-3.585a.924.924,0,0,0-.643-.434,1.14,1.14,0,0,0-.273.707c.016.354.064.707.08,1.061a1.007,1.007,0,0,1-.289.723,2.192,2.192,0,0,1-.82.659.315.315,0,0,0-.225-.4l-.161.145a.31.31,0,0,0,.4.225.725.725,0,0,1-1.093.4L63.837,47a.666.666,0,0,0-.193.177.434.434,0,0,0,0,.5l.225.466c-.289.45-.868.225-1.222.5.048.338.225.707-.241.884a.855.855,0,0,0-.418.338c-.145.321-.273.643-.418.981a2.659,2.659,0,0,1,.113.514.931.931,0,0,1-.4.659.463.463,0,0,1-.5.032,1.368,1.368,0,0,0-.273-.1c-.161.209-.321.418-.5.611-.225.273-.611.354-.884.595a1.43,1.43,0,0,0-.45.659c-.064.177-.064.354-.129.53a.732.732,0,0,1-.434.627,1.443,1.443,0,0,0-.739.739,1.437,1.437,0,0,1-.482.627,6.53,6.53,0,0,0-1.206.611l-.772-.145a7.443,7.443,0,0,1-.386.691,1.1,1.1,0,0,1-.579.53,5.471,5.471,0,0,0-.547-.113c-.048.064-.145.113-.161.177-.161.53-.514.627-.981.434a3.337,3.337,0,0,1-.305.466.615.615,0,0,1-.723.161.669.669,0,0,1-.338-.386.6.6,0,0,0,.241-.064l.064-.193c-.113-.016-.193.1-.257.305a1.043,1.043,0,0,0-.53.579,2.639,2.639,0,0,1-1.993,1.624c-.354.064-.691.193-1.029.289l-.514-.145a.712.712,0,0,0-.321.386,2.634,2.634,0,0,1-.225.482.729.729,0,0,1-.932.225l-.514-.209.048.048c0-.161-.032-.321-.016-.482a.674.674,0,0,1,.579-.675.535.535,0,0,0,.08.241l.145.1c.032-.145-.064-.241-.305-.257a.61.61,0,0,1,.289-.45c.241-.113.482-.209.723-.338.321-.177.611-.386.9-.579l-.08-.193c-.321-.145-.643-.273-.948-.4a1.335,1.335,0,0,0-.209.225c-.37.514-.37.514-.627.064a.8.8,0,0,0-.338-.386c-.241.482-.466.964-.691,1.463-.273.563-.611,1.093-.884,1.672l-.193.193a.478.478,0,0,1-.482.129c-.321-.145-.627-.321-.948-.5a.8.8,0,0,1-.338-.418.971.971,0,0,0,.257-.08l.048-.193c-.1,0-.177.113-.241.321a.636.636,0,0,1-.466-.241c-.161-.209-.161-.514-.4-.707a1.243,1.243,0,0,0-.305.45c-.016.064-.1.129-.161.193a.4.4,0,0,1-.482.113.393.393,0,0,1-.241-.45,6.948,6.948,0,0,0,.37-2.138c.354-.113.611-.53.466-.772A2.913,2.913,0,0,1,40,56a3.909,3.909,0,0,0-.016-1.061c.338-.177.466-.305.482-.547,0-.37.016-.723,0-1.077a.3.3,0,0,0-.145-.225c-.1-.032-.225.064-.289.289a3.867,3.867,0,0,0-.016,1.607c-.37.113-.514.225-.53.466a3.564,3.564,0,0,1-.434,1.511,1.381,1.381,0,0,0-.08.514c-.032.37.064.547.53.788a.935.935,0,0,1,.53.547.588.588,0,0,0-.4.321l-.225.482c-.161.257-.289.225-.53-.257a.965.965,0,0,0-.5-.563.786.786,0,0,1-.514-.563.849.849,0,0,0-.225-.466c-.241-.305-.418-.643-.193-.981.338-.547.257-1.222.595-1.8a12.1,12.1,0,0,0,.932-.9,1.411,1.411,0,0,0,.466-.932,1.644,1.644,0,0,1,.177-.772A2.56,2.56,0,0,0,39.9,51.1c0-.354.048-.707.064-1.061a3.236,3.236,0,0,1,.4-.225l-.161-.113a.378.378,0,0,0-.193.386,1.462,1.462,0,0,0-1.061,1.286l-.08.5-.386.354-1.27.048c.048-.37.37-.611.45-.948a9.805,9.805,0,0,1,.916-2.2,2.089,2.089,0,0,0,.289-.739.423.423,0,0,0,.386-.273.625.625,0,0,0,.032-.241.239.239,0,0,0-.1-.209c-.1-.048-.193.064-.225.273-.016.161-.016.338-.048.5a.74.74,0,0,1-.547-.514,1.483,1.483,0,0,1,.016-.53,4.447,4.447,0,0,1,.434-.981,1.89,1.89,0,0,1,.852-.981.549.549,0,0,0,.225-.466,6.979,6.979,0,0,0,.016-.82.519.519,0,0,0-.209-.434c-.177.016-.354.048-.53.08-.048-.064-.145-.113-.161-.193a5.267,5.267,0,0,1-.048-1.881,4.958,4.958,0,0,0,.418-2.09,3.007,3.007,0,0,1,.305-1.045A2.926,2.926,0,0,0,39.9,37a.365.365,0,0,0-.1-.257c-.1-.08-.225-.016-.338.193-.193.305-.354.611-.547.932-.016.627-.032,1.27-.064,1.816a2.265,2.265,0,0,1-.82,1.141.569.569,0,0,0-.209.482.549.549,0,0,0-.4.321,1.463,1.463,0,0,0-.08.788.423.423,0,0,0,.145.225c.1.032.225-.08.257-.305.032-.354.016-.723.032-1.077a.984.984,0,0,1,.563.836c.016.45.016.9.016,1.334a2.63,2.63,0,0,1-.4,1.286l.241.739-.321.723a4.46,4.46,0,0,1-.5,2.106,11.1,11.1,0,0,0-.08,1.3,3.913,3.913,0,0,1-.434,1.8c-.145.305.016.611.418.836a1.393,1.393,0,0,0,.273,1,.7.7,0,0,1,.129.241.5.5,0,0,1,.048.514c-.113.257-.209.482-.338.739-.145.321-.048.707-.273,1.013l-.177.08a.3.3,0,0,1-.177-.193c-.064-.257-.08-.53-.129-.868-.225-.305-.482-.675-.756-1.029a1.242,1.242,0,0,1-.1-1.27c.064-.161.161-.321.209-.482a.728.728,0,0,0-.145-.756,6.453,6.453,0,0,1-.482-.627,1.164,1.164,0,0,1-.257-.756l-.016-.273a2.94,2.94,0,0,1,.032-.53,3.621,3.621,0,0,0-.273-1.591,2.63,2.63,0,0,0-.675-.788.582.582,0,0,1,0-.739c.161-.225.321-.434.5-.643a1.953,1.953,0,0,0,.37-1.254.656.656,0,0,0,.547-.643v-.45a1.062,1.062,0,0,0,.241-.08l.048-.193c-.145-.016-.241.08-.241.321a.466.466,0,0,0-.418.305,2.134,2.134,0,0,0-.129.788c-.305.145-.627.289-.932.418a.94.94,0,0,1-.241-.756,4.921,4.921,0,0,0,.08-.514,1.244,1.244,0,0,0-.161-.756L33.552,42a5.245,5.245,0,0,1-.08-.53.855.855,0,0,0-.643-.739.922.922,0,0,1-.53-.563.412.412,0,0,0,.37-.193l-.129-.145a3.037,3.037,0,0,1-.177.4c-.595-.321-.627-.434-.37-.964l.129-.241a.8.8,0,0,0,0-.948,1.84,1.84,0,0,1-.37-1.19.54.54,0,0,0,.225-.08l.1-.129c-.129-.016-.209.08-.257.273a.62.62,0,0,1-.466-.225.451.451,0,0,1-.161-.225c-.048-.466-.4-.788-.53-1.222-.129-.354-.161-.338-.739-.723a.755.755,0,0,1-.338-.4c.321-.032.434-.305.547-.563a2.169,2.169,0,0,0,1.35-1.141.32.32,0,0,0,.016-.209.428.428,0,0,0-.482-.129,5.537,5.537,0,0,0-1.141.611c-.064.37.305.595.321.932a.632.632,0,0,0-.563.547c-.177-.032-.354-.08-.53-.129a.919.919,0,0,1-.611-.45c.08-.032.177-.016.241-.064l.064-.193c-.161-.032-.241.064-.273.289-.482-.305-.53-.4-.386-.852l.129-.241c.1-.273-.08-.5-.4-.482a8.424,8.424,0,0,1-3.215-.386,3.006,3.006,0,0,0-1.077-.129,10.482,10.482,0,0,0-3.231.273,3.45,3.45,0,0,1-1.077.08c-1.64.048-3.263.08-4.9.113l-2.17.048a5.416,5.416,0,0,0-1.334.241c-.354.1-.707.161-1.061.241-.177.048-.418.514-.338.675.273.563.563,1.125.868,1.752-.032.209-.241.37-.4.563a2.867,2.867,0,0,0-.354.418l-.434.691c-.129-.064-.193-.209-.289-.386-.177-.305-.434-.321-.611-.1A2.079,2.079,0,0,0,7.8,37.436c.016.257.145.418.482.563a.537.537,0,0,0,.579.53,3.067,3.067,0,0,0,.273,1.849.673.673,0,0,1-.338.916.609.609,0,0,0-.338.4,2.677,2.677,0,0,0-.048,1.334l.145.225L8.7,43.03a5.186,5.186,0,0,0,.1-.53c.08-.37.241-.547.482-.547.257.016.386.209.305.563a6.885,6.885,0,0,0-.177,1.624c-.016.723,0,1.447-.016,2.17a2.35,2.35,0,0,1-.273,1.045c-.08.161-.113.354-.241.643.048.772-.064,1.672.048,2.572a.84.84,0,0,0,.113.241.865.865,0,0,0,.193-.145.71.71,0,0,0,.1-.257,3.081,3.081,0,0,1,.145-.514c.193-.4.45-.788.675-1.157l.161.048a3.01,3.01,0,0,1,.129.514.456.456,0,0,0,.289.434.578.578,0,0,0,.209-.418c.048-.45.08-.9.145-1.35a.821.821,0,0,1,.756-.659,1.168,1.168,0,0,1,1.125.595c.129.241.241.482.386.707.032.064.129.08.193.129.177-.064.338-.129.514-.177l.225.145a.8.8,0,0,0,1-.016,1.186,1.186,0,0,0,.563-.884c.064-.53.08-1.077.129-1.624l-.064.064a.811.811,0,0,0,.595-.8c.032-.627.032-1.27.064-1.913a.283.283,0,0,1,.145-.209c.113-.064.257.048.273.273.032.547,0,1.093.064,1.64a3.1,3.1,0,0,1-.418,1.816.44.44,0,0,0,.1.514c.257.257.514.5.772.739.08.466.177.9.273,1.35l.129.113c.048-.064.145-.129.161-.209.048-.177.064-.354.113-.53.064-.225.177-.321.305-.273.08.032.129.129.177.209.1.241.032.547.257.756.338-.241.193-.595.225-.9a6.224,6.224,0,0,0,.048-1.093,23.265,23.265,0,0,1,.177-3.81.5.5,0,0,1,.113-.225.582.582,0,0,1,.241-.1c.193.032.354.161.289.321a3.478,3.478,0,0,0-.225,1.061v3.536a8.026,8.026,0,0,0,.1,1.64.638.638,0,0,0,.627.386c.241-.032.482-.305.723-.1a.743.743,0,0,1-.37,1.254l-.145-.225a.888.888,0,0,0-.964-.305c-.257.08-.5.193-.772.289a1.163,1.163,0,0,0-1.206.048.5.5,0,0,1-.675-.257,1.9,1.9,0,0,0-.53-.9.385.385,0,0,0-.45-.08.423.423,0,0,0-.145.225,10.541,10.541,0,0,0,.1,1.881l.177.514a2.792,2.792,0,0,1,.273,1.3c0,.257,0,.53-.016.8a1.584,1.584,0,0,1-.643-.482,1.614,1.614,0,0,1-.5-.932,3.029,3.029,0,0,1-.032-.53,1.416,1.416,0,0,0-.466-.964c-.177-.193-.354-.418-.53-.611a.374.374,0,0,0-.241-.113c-.145-.032-.257.08-.289.305-.032.177-.032.37-.048.547-.048.338-.145.482-.466.547a4.532,4.532,0,0,0-.772.305.475.475,0,0,1-.482-.113c-.273-.241-.53-.482-.788-.723a2.574,2.574,0,0,1-1.013-.305.68.68,0,0,0-.37.643c.032,1.366.064,2.733.08,4.083a.788.788,0,0,1-.5-.579c-.08-.707-.08-1.431-.145-2.138a.64.64,0,0,0-.305-.4.357.357,0,0,0-.482.1l-.209.225-.1,1.816A5,5,0,0,0,7.72,57.5a20.211,20.211,0,0,0,.032,2.958c-.37.193-.482.4-.37.739.016.064.113.1.161.145.048-.064.129-.129.129-.209l.032-.723a.527.527,0,0,0,.45-.257c.225-.386.434-.772.595-1.093.08-.547.129-.981.209-1.431,0-.064.1-.129.145-.209.064.064.145.113.161.193a8.609,8.609,0,0,1,.177,2.138c.016.193.113.354.225.354.064,0,.129-.113.193-.193.032-.354.032-.707.1-1.077.032-.209.177-.305.321-.225a.388.388,0,0,1,.161.193c.032.177.048.354.1.53a.3.3,0,0,0,.145.193c.113.064.241-.032.257-.273.048-.53.064-1.077.08-1.575a.977.977,0,0,0-.611-.547.715.715,0,0,1-.514-.547c.948-.048.948-.064,1.173-1.061.032-.08.08-.193.145-.225.129-.016.209.129.257.338a5.144,5.144,0,0,0,.113.53.351.351,0,0,0,.193.177c.113.032.273-.064.289-.273.064-.547.08-1.077.129-1.624a.325.325,0,0,1,.129-.225c.1-.064.225.048.257.273a4.657,4.657,0,0,1,.016.82,3.169,3.169,0,0,0,.434,1.527c-.1.257-.209.5-.354.82a19.024,19.024,0,0,0,.048,3.7,1.505,1.505,0,0,0,.064.257.464.464,0,0,0,.643.273.517.517,0,0,0,.338-.386l-.048.048a.588.588,0,0,1,.434.257c.482.643.579.675.579.289.032-.257.032-.53.048-.788a4.541,4.541,0,0,1,.08-.8c.032-.193.177-.305.273-.257a.248.248,0,0,1,.145.209c.08.53.113,1.045.193,1.575a.715.715,0,0,0,.5.547,22.1,22.1,0,0,0,.048,2.733c.032.225.177.338.273.273a.316.316,0,0,0,.145-.209A13.976,13.976,0,0,0,16.4,63.2c0-.241-.145-.386-.5-.563a25.865,25.865,0,0,0,.08-2.958c-.016-.354-.032-.707-.032-1.077a2.793,2.793,0,0,1,.225-1.3,3.107,3.107,0,0,0,.273-1.3c.016-.37,0-.723,0-1.077a4.329,4.329,0,0,1,.466.257,1.277,1.277,0,0,1,.563.884,13.708,13.708,0,0,1,.113,3.247,8.641,8.641,0,0,0,.032,2.138l.08.273a2.6,2.6,0,0,1,.45,1.543,13.8,13.8,0,0,0,.032,2.7c.016.08.08.209.129.225.129,0,.257-.113.354-.289.145-.338.289-.659.418-.981.032-.289.032-.563.08-.82a1.862,1.862,0,0,1,.225-.772,2.306,2.306,0,0,0,.338-1.286c-.016-1.447,0-2.893.016-4.26-.177-.418-.305-.739-.434-1.061-.048-.466-.08-.916-.129-1.366a4.766,4.766,0,0,1,.064-1.35c.016-.193.1-.4.209-.418.209-.016.305.161.354.354a.249.249,0,0,0,.193.161c.129.08.225-.032.241-.273.048-.547.064-1.077.145-1.624a.778.778,0,0,1,.514-.579,8.912,8.912,0,0,0-.016,2.17,3.249,3.249,0,0,0,.177.514c.145.386.145.514-.1.659a1.658,1.658,0,0,0-.45.289.781.781,0,0,0-.209.739c.032.08.032.193.08.257a1.336,1.336,0,0,1,.193,1.222l.225.193c.563.386.579.418.595.8.032,1.19.048,2.363.1,3.536a.36.36,0,0,0,.129.241c.08.08.225-.032.241-.257.032-1.013.048-1.993.08-3.006a4.364,4.364,0,0,1,.08-.788c.016-.08.1-.145.161-.225.048.064.129.113.145.177.257,1.077.032,2.186.209,3.247a2.561,2.561,0,0,0,.241.466.588.588,0,0,0,.273-.434c.048-1,.048-1.993.08-2.99.016-.225.113-.37.225-.354.064,0,.129.129.145.209.064.723.1,1.463.161,2.17a.283.283,0,0,0,.145.209c.113.048.257-.08.289-.289.048-.45.048-.916.064-1.366a6.341,6.341,0,0,1,.064-1.35.332.332,0,0,1,.161-.225c.1-.032.257.113.257.321.064,1.254-.048,2.54.1,3.794.225.418.723.547.981,1,.032.305.08.659.113,1.029.032.209.1.37.225.354.064,0,.161-.1.193-.145a.505.505,0,0,1,.386-.354,1.625,1.625,0,0,1,.209.482,6.461,6.461,0,0,1,.1.8c.032.241.129.354.257.273a.666.666,0,0,0,.177-.193c.064-.193.209-.354.37-.321.161.064.209.289.225.466a4.112,4.112,0,0,0,.129,1.077l.161.145c.048-.08.129-.145.129-.241a9.437,9.437,0,0,1,.016-1.35c.193-1.173.1-2.347.193-3.52a.471.471,0,0,1,.113-.257l.145-.032c.241.193.177.482.241.739.064.273.145.354.514.53a.674.674,0,0,0,.5.547.6.6,0,0,1,.514.5,12.447,12.447,0,0,0,.193,1.286l.145.129c.08-.032.177-.064.209-.129.064-.177.145-.354.321-.386.113,0,.177.193.209.386l.064.53c.064.225.177.289.579.434a3.383,3.383,0,0,1-.321,1.318,1.507,1.507,0,0,0-.048,1.061,1.828,1.828,0,0,1,.032,1.061,4.187,4.187,0,0,0-.1,2.138.533.533,0,0,0,.161.225.473.473,0,0,0,.482-.016.628.628,0,0,0,.257-.466c.032-.627.048-1.254.048-1.9a2.567,2.567,0,0,1,.257-1.045,3.5,3.5,0,0,0,.354-1.318c0-.08.064-.209.129-.225.145-.032.257.1.338.305a.522.522,0,0,0,.4.321.593.593,0,0,0,.1-.241,6.786,6.786,0,0,0,.129-1.607,4.7,4.7,0,0,1,.129-1.35l.129-.113c.048.08.129.145.145.225.048.37.048.739.129,1.093a.756.756,0,0,0,.466.595c.338.161.37.354.209.627-.193.305-.4.611-.579.884a3.381,3.381,0,0,1-.37,1.607.521.521,0,0,0-.064.5,3.364,3.364,0,0,1,.4,1.833,4.77,4.77,0,0,0,.161.868,2.412,2.412,0,0,0,.193-.579c.08-.723.145-1.463.177-2.186a4.323,4.323,0,0,1,.53-1.527l.209-.177a.865.865,0,0,1,.145.193.97.97,0,0,1,.08.257c.048.257.064.53.338.675a1.018,1.018,0,0,0,.225-.739c0-.627.016-1.27,0-1.913a.906.906,0,0,0-.547-.868.709.709,0,0,1-.45-.611,11.811,11.811,0,0,1,.016-2.717.3.3,0,0,1,.145-.225c.08-.08.241.016.257.257.064.627.064,1.254.1,1.9.016.482.193.707.627.5a.958.958,0,0,1,1.013.08.562.562,0,0,1,.305.675,2.864,2.864,0,0,0-.161,1.865l.177.064.177-.193c.113-.177.257-.273.386-.209a.393.393,0,0,1,.129.241l.145,1.061c.209.418.386.82.611,1.222a.554.554,0,0,0,.193.193.314.314,0,0,0,.45-.064c.289-.273.225-.675.386-1.061l.4-.643c.1-.161.209-.305.305-.45a.413.413,0,0,1,.482-.193.468.468,0,0,1,.354.338,7.809,7.809,0,0,1,.113,1.624,4.142,4.142,0,0,0,.129,1.334l.113.048a.664.664,0,0,0,.113-.241,21.581,21.581,0,0,1,.209-2.7.434.434,0,0,1,.418-.305.413.413,0,0,1,.418.241,1.257,1.257,0,0,1,.048.8c-.08.257-.225.5-.338.788-.048.418-.08.868-.113,1.318a4.665,4.665,0,0,0,.032.82,2.329,2.329,0,0,0,.177.5.665.665,0,0,0,.4-.321,3.487,3.487,0,0,0,.434-1.559c-.016-.739.016-1.447.048-2.186.016-.305.257-.53.53-.37.37.209.45-.064.595-.273.113-.177.257-.241.386-.145a.518.518,0,0,1,.129.225,21.812,21.812,0,0,0,.113,2.717c.016.1.1.161.145.241a.363.363,0,0,0,.129-.177,16.8,16.8,0,0,0,.145-2.7.632.632,0,0,1,.241-.45.532.532,0,0,1,.273.386c.032.643.032,1.286.064,1.929a7.16,7.16,0,0,0,.08.8.544.544,0,0,0,.354.37.339.339,0,0,0,.434-.209,2.308,2.308,0,0,1,.964-.916,1.445,1.445,0,0,0,.354-.4l-.016.032c.514.161.627.289.595.707a2.9,2.9,0,0,1-.273,1.318,2.339,2.339,0,0,0-.273,1.029,9.327,9.327,0,0,1-.1,1.9.37.37,0,0,1-.177.209l-.193-.1a1.055,1.055,0,0,1-.193-.482c-.048-.129.1-.611-.338-.273-.016.177-.064.354-.08.53-.016.466-.048.9-.048,1.366a1.97,1.97,0,0,0,.113.514.557.557,0,0,0,.884.193,1.514,1.514,0,0,0,.514-.932,11.06,11.06,0,0,0,.064-1.624,5.9,5.9,0,0,1,.466-2.106,13.345,13.345,0,0,0-.305-3.488l-.032-.273a5.969,5.969,0,0,0-.45-2.122,2.662,2.662,0,0,1-.129-1.334.347.347,0,0,1,.145-.225c.113-.048.273.048.305.257a3.507,3.507,0,0,0,.482,1.254,18.106,18.106,0,0,0,.82,1.688l.177.1c.032-.064.113-.145.113-.225a3.9,3.9,0,0,0-.4-1.64V62.8c0-.225.1-.37.225-.386.064-.016.177.064.209.129.064.193.161.4.321.418.145,0,.241-.209.305-.4a.411.411,0,0,1,.321-.338l.5.177.145-.225c.048-.08.064-.193.129-.241.129-.129.257-.289.4-.321.321-.064.45.225.579.482.048.514.1,1.061.161,1.607a.283.283,0,0,0,.145.209c.129.08.289.032.45-.1a.964.964,0,0,0,.321-.964,3.984,3.984,0,0,1-.434-2.106V60.2a.865.865,0,0,1,.579-.82l-.064-.08.048,1.913c.016.177.064.354.1.53.161.321.305.659.466.981a.721.721,0,0,0,.177.209c.257.032.466-.145.691-.145.273.129.5.273.739.37.177.08.354.145.434.321.177.579.707.772,1.157,1.061a1.141,1.141,0,0,1,.547.884l.032.273a.639.639,0,0,0,.289.45.66.66,0,0,0,.209-.466,3.356,3.356,0,0,0-.305-1.591A1.545,1.545,0,0,1,60.2,63.3c-.016-.354.016-.723.016-1.077a1.381,1.381,0,0,0-.434-.964,6.3,6.3,0,0,1-.547-.595.674.674,0,0,1-.064-.257l-.064.048c.177,0,.354,0,.53-.016.338-.048.482-.305.338-.563a10.944,10.944,0,0,1-1.238-3.247c-.064-.209.193-.547.45-.579l.514-.032.016.273a2.486,2.486,0,0,0,.305,1.543,2.158,2.158,0,0,1,.177.772,1,1,0,0,0,.466.627,1.506,1.506,0,0,1,.756.723c.032.064.161.177.177.161.129-.064.177-.225.193-.418a2.251,2.251,0,0,0-.305-1.543,1.6,1.6,0,0,1-.193-.482l.514.032c.289,0,.482-.241.37-.482a6.122,6.122,0,0,1-.354-1.206.7.7,0,0,0-.53-.5,1.516,1.516,0,0,0-.1-.756c-.1-.241-.241-.466-.321-.691a.572.572,0,0,1,.45-.772l.209.386.113-.145a.334.334,0,0,0-.37-.193,3.913,3.913,0,0,1,.321-.4.484.484,0,0,1,.691,0,1.425,1.425,0,0,0,.691.354l.048.53a4.111,4.111,0,0,0,.273,1.334,4.3,4.3,0,0,1,.241.772.859.859,0,0,0,.482.611,1.267,1.267,0,0,1,.547.611l.1,1.607a.313.313,0,0,0,.145.225c.064.048.177-.1.193-.321.048-.9.1-1.816.145-2.652a3.892,3.892,0,0,0-.8-1.173,1.74,1.74,0,0,1-.338-1.013c.209,0,.418,0,.611.016M88.64,39.124c-.016-.338-.145-.563-.514-.579a1.382,1.382,0,0,0-.257-1c-.161-.209-.354-.418-.5-.627a1.946,1.946,0,0,1-.289-.45,1.324,1.324,0,0,1-.048-.788,1.16,1.16,0,0,1,.37-.37,3.2,3.2,0,0,1,.466-.257l-.113-.161c-.386-.209-.772-.4-1.157-.611a.344.344,0,0,0-.482.113l.016.241c.1.45.08.514-.177.563l-.547.048c-.016-.177-.016-.338-.048-.514a.491.491,0,0,0-.305-.386.458.458,0,0,0-.257-.032c-.209.048-.289.177-.193.354.177.305.338.611.756.627,0,.273.177.434.321.643.177.257.1.338-.338.386l-.5.032c-.1-.418-.1-.418-.579-.514-.113-.482-.129-.514-.563-.547a.313.313,0,0,0-.161-.45l-.193.145a.316.316,0,0,0,.4.257.546.546,0,0,0,.563.547c0,.338.145.563.5.579a.951.951,0,0,0,.579,1.045l.209.386a.4.4,0,0,0,.37.177,1.462,1.462,0,0,0,.257,1A4.028,4.028,0,0,0,88.3,40.539a.524.524,0,0,0,.289-.37c.032-.177.032-.37.048-.53.193,0,.418-.08.418-.257,0-.193-.225-.273-.418-.257M70.09,64.844a.436.436,0,0,0-.386.209l.161.113a.328.328,0,0,0,.161-.386.476.476,0,0,0,.434-.177l-.129-.145a.44.44,0,0,0-.241.386m10.4-33.435a.536.536,0,0,0,.547.563,1.418,1.418,0,0,0,.514,1.19,2.747,2.747,0,0,0,.418.338.926.926,0,0,0,1.013-.016,3.331,3.331,0,0,0,.948-.948,30.315,30.315,0,0,1,1.993-2.556l.305-.466a5.735,5.735,0,0,0-.305-.723c-.145-.305-.273-.354-.595-.273-.354.1-.707.145-1.061.225a.4.4,0,0,0-.177-.37l-.386-.177a.631.631,0,0,0-.129-.225l-.145-.032q.024.193.338.193c-.016.37.209.53.547.563a4.638,4.638,0,0,0-.064.466c.016.386-.209.547-.514.675a.581.581,0,0,0-.579-.547c.032-.193-.048-.386-.225-.37-.161,0-.241.193-.241.386-.209,0-.418,0-.627-.016l-.08-.225L81.841,29c-.016.145.1.209.289.225.016.177.08.386.241.386.145,0,.241-.209.257-.386h.595c.032.338.177.563.547.563a1.176,1.176,0,0,1-.868.579,2.076,2.076,0,0,1-.547.016.521.521,0,0,0-.5.161c-.1.113-.064.289.048.466l.466.659a.843.843,0,0,1-.225.466c-.193.257-.338.289-.675.145a4.5,4.5,0,0,0-.482-.241.8.8,0,0,0-.563-.563.838.838,0,0,0-.1-.241l-.193-.048c0,.161.113.241.354.225M103.4,21.587c.209-.016.418-.016.627-.016a2.8,2.8,0,0,0-.016,1.157.6.6,0,0,0-.241.064l-.064.161c.145.032.225-.064.257-.289.321-.113.434-.241.45-.5.016-.241-.08-.354-.45-.53l-.1-.209-.177-.129c-.177.016-.241.145-.241.321a.578.578,0,0,0-.547.563l-.595.016-.1-.257-.145-.064c-.016.129.1.209.305.257a2.429,2.429,0,0,1-.209.466,1.591,1.591,0,0,0-.338,1.222.3.3,0,0,0-.37.225l.161.161.209.113a.592.592,0,0,0,1.045.209l.177-.209c.177-.145.193-.289.016-.418a.429.429,0,0,0-.225-.113,2.681,2.681,0,0,0-.514.032.663.663,0,0,1,.113-.241,1.965,1.965,0,0,0,.4-1.447c.321-.064.563-.193.563-.547m4.372-.563a.666.666,0,0,0,.547-.547,1.2,1.2,0,0,0,.257-.08l.08-.161c-.145-.016-.225.064-.273.305a.729.729,0,0,0-.547.547.616.616,0,0,0-.563.53.97.97,0,0,0-.257.08,6.672,6.672,0,0,0-1.64,1.72.509.509,0,0,0-.1.241.3.3,0,0,0,.177.4,6.071,6.071,0,0,0,1.527-1.479,1.39,1.39,0,0,0,.241-1c.434-.064.434-.08.547-.563m-15.3-.547a.989.989,0,0,0,.563-.547.567.567,0,0,0,.209-.129l.032-.161c-.145.016-.209.129-.193.354a.648.648,0,0,0-.547.547.711.711,0,0,0-.241.08l-.064.161c.113,0,.209-.1.241-.305m13.133-.547a.539.539,0,0,0,.547-.53,1.79,1.79,0,0,0,.273-.032,7.692,7.692,0,0,0,1.736-1.222c.772-.739,1.559-1.479,2.331-2.2a6.814,6.814,0,0,1,1.238-1.013,2.744,2.744,0,0,0,.627-.514c.788-.723,1.559-1.463,2.331-2.2l.145-.209a.52.52,0,0,0,.048-.257c.354-.032.563-.193.563-.563.338-.016.466-.257.547-.547.177-.016.354-.016.53-.048a.894.894,0,0,0,.579-.5l.466-.08a.612.612,0,0,0,.241-.08l.048-.113a.339.339,0,0,0-.434-.032.4.4,0,0,0-.273.37,4.8,4.8,0,0,0-.691.064.5.5,0,0,0-.4.466.615.615,0,0,0-.547.547.6.6,0,0,0-.579.563h-1.109c-.321-.482-.723-.579-1.077-.289-.321.289-.643.579-.948.884a.552.552,0,0,0-.145.482,1.115,1.115,0,0,0-.964.289,19.006,19.006,0,0,0-2.218,2.186c-.048.064-.048.177-.08.257a.685.685,0,0,0-.547.547.685.685,0,0,0-.547.547c-.434.241-.434.241,0,.514a1.063,1.063,0,0,1-.354.932c-.129.113-.273.225-.4.354a1.11,1.11,0,0,0-.354.948.5.5,0,0,0-.53.547.3.3,0,0,0-.386.209l.145.161a.579.579,0,0,0,.193-.434m-4.887,0c.032.08.032.161.1.225l.145.064c.016-.145-.1-.225-.289-.225v-.611a.507.507,0,0,0,.547-.547h.595c0,.177.064.321.241.354l.161-.161.113-.193a.962.962,0,0,0,.547-.547l.209-.1.129-.161a.278.278,0,0,0-.354-.225c.016-.177-.064-.338-.225-.321-.129,0-.209.161-.257.305a.811.811,0,0,0-.547.547.617.617,0,0,0-.563.547.6.6,0,0,0-.53.547c-.161.032-.338.113-.338.257-.016.145.161.225.321.241m-6.044-2.186a.615.615,0,0,0,.53-.547.41.41,0,0,0,.354-.241c-.113-.08-.241-.161-.354-.257l-.08-.514c-.048-.354-.08-.37-.45-.563a.665.665,0,0,0-.563-.563c.161-.209.305-.45.45-.659a.592.592,0,0,0,.08-.5,5.572,5.572,0,0,0,1.157.016c.016.177.1.354.257.354.161.016.241-.177.241-.354a.515.515,0,0,0,.547-.547l.241-.064.1-.145c-.145-.048-.241.048-.273.273h-.611c0-.193-.08-.37-.257-.37s-.257.177-.241.37a2.988,2.988,0,0,0-.53.064.691.691,0,0,0-.579.466,2.377,2.377,0,0,0-.772.209c-1,.595-1.961,1.27-2.958,1.881a19.091,19.091,0,0,0-4.179,3.36,17.2,17.2,0,0,1-1.334,1.318,1.724,1.724,0,0,0-.547,1.463c.016.354.016.707.048,1.077a.758.758,0,0,0,.1.241,1.838,1.838,0,0,1,.514-.113c.305,0,.4.273.5.5.032.08.113.129.177.209L86.47,24a.409.409,0,0,1,.547.37c.016.354.016.723.016,1.077a.451.451,0,0,0-.4.305l-.048.257a.426.426,0,0,0,.113.225c.129.064.241-.048.273-.289a2.852,2.852,0,0,0,.032-.53.672.672,0,0,0,.5-.129c.354-.225.514-.209.627.1a1.107,1.107,0,0,0,.5.611,1.183,1.183,0,0,1,.434.338c.048.241.113.5.177.756a.3.3,0,0,0-.386.209l.145.161a.325.325,0,0,0,.209-.4,1.965,1.965,0,0,0,.53-.032c.257-.064.514-.161.772-.241a3.558,3.558,0,0,1,.981,1.881,1.333,1.333,0,0,0,1.061,1.093,1.327,1.327,0,0,1,.482.225c.418.386.82.209,1.238-.016a.493.493,0,0,1,.514-.048c.321.145.643.321.964.482.273.145.289.145.289.643a.859.859,0,0,0,.305.707,3.331,3.331,0,0,1,1.206,1.447c.113.338.5.482.836.643.289.145.53.08.611-.241a6.073,6.073,0,0,1,.482-1.27,1.339,1.339,0,0,0,.113-.514.752.752,0,0,0-.129-.5c-.225-.289-.5-.53-.772-.82.048-.305.08-.659.145-1.061l-.466-.916c-.032-.064-.129-.08-.193-.113a2.865,2.865,0,0,1-.338.434,2.946,2.946,0,0,1-.418.338.743.743,0,0,1-1.013-.563,1.606,1.606,0,0,1,.145-.788,2.33,2.33,0,0,0,.305-1.3.694.694,0,0,0,.482-.579,3.006,3.006,0,0,0,.048-.547.416.416,0,0,0,.37-.289l.048-.225-.1-.209c-.1-.048-.177.08-.209.289l-.048.5a.55.55,0,0,0-.482.418,4.53,4.53,0,0,0-.08.691,1.473,1.473,0,0,1-.675-1.286c-.016-.177,0-.338,0-.5.016-.338.048-.675.064-1.013.193-.048.289-.113.289-.225l-.113.08-.113.193a.7.7,0,0,0-.4.338,9.467,9.467,0,0,0-.225,1.35,5.073,5.073,0,0,1-1.045,1.222.37.37,0,0,1-.257.1.469.469,0,0,1-.289-.386,3.649,3.649,0,0,1,.129-1.656,16.651,16.651,0,0,1,2.572-3.456,5.452,5.452,0,0,0,.868-1.061,17.6,17.6,0,0,1,1.559-1.881c.964-1.077,1.977-2.122,3.054-3.118a2.974,2.974,0,0,1,1.4-.8,2.217,2.217,0,0,0,.964-.45c.434-.354.852-.691,1.3-1.045.241-.048.5-.08.772-.129a3.875,3.875,0,0,1-.756,1.013,1.583,1.583,0,0,0-.354,1.206.5.5,0,0,0-.53.547.419.419,0,0,0-.386.209l.145.113a.293.293,0,0,0,.177-.37c.45-.048.482-.08.563-.547a1.321,1.321,0,0,0,.981-.193c.225-.129.466-.241.691-.354l.064.241.177.048c.032-.161-.048-.241-.289-.241a2.68,2.68,0,0,1,.595-.884,6.461,6.461,0,0,0,.852-1.013.508.508,0,0,0-.354-.788c-.177-.032-.354-.032-.53-.048l.145-.225c.5-.338,1.045-.611,1.575-.916a5.813,5.813,0,0,0,1.961-1.688,2.116,2.116,0,0,0,.145-.482,2.255,2.255,0,0,0,.756-.145A5.95,5.95,0,0,0,113.7,7.6a.433.433,0,0,0,.08-.241,3.313,3.313,0,0,0,1.833-.338c.707-.386,1.479-.691,2.218-1.029a3.083,3.083,0,0,1,.772-.241,5.193,5.193,0,0,0,1.543-.466c.981-.161,1.849-.756,2.877-.756l2.347-.675a3.676,3.676,0,0,1,1.559-.4.423.423,0,0,0,.225-.145c.064-.08-.048-.209-.289-.225a4.525,4.525,0,0,0-2.4.289l-.257.1a12.829,12.829,0,0,0-1.35.145c-.53.113-1.029.289-1.559.418a7.283,7.283,0,0,1-.8.1c-.466.032-.916.064-1.254.113-.434.177-.772.289-1.109.45a6.122,6.122,0,0,0-.659.466c-.305.193-.611.386-.932.563-.852.482-1.752.916-2.572,1.463-.08.032-.1.161-.129.225a1.225,1.225,0,0,1-1.013-.305c.257-.37.53-.723.8-1.093a.561.561,0,0,0-.45-.193,1.46,1.46,0,0,0-.788.177c-.739.37-1.591.4-2.315.8a8.828,8.828,0,0,0-1.575.45,8.246,8.246,0,0,1-1.061.209,5.869,5.869,0,0,0-.8.209,43.322,43.322,0,0,0-4.228,1.881,22.149,22.149,0,0,0-3.247,1.977l-.08.273a.667.667,0,0,0-.547.53l-.257.113-.08.161c.161,0,.241-.1.273-.338a.586.586,0,0,0,.547-.53,3.889,3.889,0,0,0,1.077-.113c.756-.289,1.575-.418,2.315-.756a11.179,11.179,0,0,0,1.415-.82A7.219,7.219,0,0,1,106.017,9a2.774,2.774,0,0,0,.514-.177,3.512,3.512,0,0,1,1.849-.37c0,.193,0,.4-.016.595a2.572,2.572,0,0,0-.788.064,9.545,9.545,0,0,1-1.463.579,1.812,1.812,0,0,0-.659.434c-.193.129-.225.289-.113.386a.54.54,0,0,0,.225.129,1.174,1.174,0,0,0,.53-.032c.563-.241,1.109-.5,1.672-.788a2.525,2.525,0,0,0,.386-.338A.576.576,0,0,0,108.316,9a2.817,2.817,0,0,0,.53-.064.791.791,0,0,0,.595-.482h1.125a1.012,1.012,0,0,1-.45.659c-.739.514-1.479,1.061-2.25,1.543a22.218,22.218,0,0,0-3.1,2.218,5.235,5.235,0,0,1-1.607,1.013,3.8,3.8,0,0,0-1.125.739c-.209.193-.4.386-.595.579a4.146,4.146,0,0,1-1.559,1.061.98.98,0,0,0-.45.305,7.81,7.81,0,0,0-.964.964,5.5,5.5,0,0,1-1.8,1.254c-.739.788-1.479,1.575-2.218,2.379-.659,1.093-1.607,1.961-2.331,3.006a1.35,1.35,0,0,0,.016,1.061,1.953,1.953,0,0,1,.273.756.338.338,0,0,1-.113.225l-.177.1a6.125,6.125,0,0,1-.981-.466c-.321-.225-.257-.643-.354-1-.08-.257-.193-.514-.305-.836a3.57,3.57,0,0,0,.4-1.511l-.048-.257a.738.738,0,0,0-.113-.257c-.1-.161-.225-.129-.305.129a4.507,4.507,0,0,1-.193.8,5.551,5.551,0,0,0-.434,1.849l-.113.241c-.032.064-.113.161-.161.161a.411.411,0,0,1-.209-.161,3.042,3.042,0,0,1-.659-2.025c.08-.563-.37-1-.547-1.511a1.218,1.218,0,0,0-.611-.514c-.08-.032-.129-.113-.209-.209a3.565,3.565,0,0,1,.4-.675c.305-.338.643-.643.948-.932.5-.273.981-.547,1.479-.788a1.456,1.456,0,0,1,.788-.113l.547.048a1.894,1.894,0,0,1-.4.643c-.386.45-.756.916-1.125,1.35-.032.289-.08.547-.129.8a.558.558,0,0,0-.37.193l.129.145.193-.4c.08-.032.193-.032.257-.08a9.085,9.085,0,0,0,1.8-1.881.438.438,0,0,0,0-.482.377.377,0,0,0-.4-.241l.032-.45a.9.9,0,0,1,.547-.691.337.337,0,0,0,.145.418c.161.113.289-.032.354-.4a.527.527,0,0,0,.547-.563c.354-.016.5-.225.547-.547h.595v1.141c-.209-.032-.386.032-.386.257-.016.177.177.273.386.257,0,.177.08.386.241.386s.257-.209.273-.4m24.594-8.761c.193-.032.289-.1.321-.193l-.161.048-.1.209c-.209.048-.338.113-.354.225l.177-.048c.064-.064.064-.161.113-.241M12.671,81.8l-.354.241a.431.431,0,0,0,.354.241.566.566,0,0,0,.563.547.54.54,0,0,0,.08.225l.145.064c.016-.161-.08-.225-.289-.225-.1-.482-.113-.514-.547-.547-.016-.209-.016-.418-.016-.611l.257-.064.08-.177c-.113-.016-.209.08-.273.305M102.85,11.717a3.1,3.1,0,0,0,.547,0c.241-.016.354-.145.547-.514a1.079,1.079,0,0,0,.241-.1l.08-.161c-.161-.032-.241.08-.257.305a4.6,4.6,0,0,0-.675.048.568.568,0,0,0-.418.482l-.418.209.161.129a.467.467,0,0,0,.193-.4m57.467-8.2a.378.378,0,0,0,.193.418l.161-.145a.377.377,0,0,0-.4-.209,1.372,1.372,0,0,0-.1-.723l-.145-.161c-.08.048-.161.1-.177.161-.113.321.048.579.466.659m-2.733-.53a.334.334,0,0,0,.225.4l.145-.177a.32.32,0,0,0-.418-.177c0-.177.032-.354.016-.53a.458.458,0,0,0-.129-.225l-.193-.032a.367.367,0,0,0-.08.466.443.443,0,0,0,.434.273m-3.874-1.045-.064-.209-.177-.064c0,.129.1.193.305.225a1.16,1.16,0,0,0,.08.739.4.4,0,0,0,.177.161.346.346,0,0,0,.225-.418c-.08-.257-.177-.321-.547-.434M6.064,37.42a.464.464,0,0,0,.386-.289.345.345,0,0,0,.064-.241c0-.064-.048-.177-.1-.193-.145-.048-.257.064-.289.273-.016.161,0,.354,0,.514a.489.489,0,0,0-.418.273.363.363,0,0,0-.032.257.306.306,0,0,0,.08.209c.113.064.193-.048.225-.273l.08-.53M36.189,82.333a.418.418,0,0,0-.338.289l-.064.225.1.209c.1.032.161-.1.193-.289l.064-.482a.44.44,0,0,0,.321-.723l-.129.032a.509.509,0,0,0-.1.241c-.032.161-.032.338-.048.5M39.42,85a.414.414,0,0,0,.37-.305l.048-.241-.113-.209c-.113-.032-.177.113-.193.321-.032.161-.032.338-.048.5a.757.757,0,0,0-.257.064l-.048.193c.145.016.241-.08.241-.321M61.892,63.124a.536.536,0,0,0,.193.4l.161-.129-.418-.209c-.016-.338-.016-.691-.064-1.045-.016-.209-.113-.338-.209-.289a.3.3,0,0,0-.113.209,1.344,1.344,0,0,0,.064.756.475.475,0,0,0,.386.305M19.23,68.605l.113.225.145.064c0-.129-.1-.209-.321-.225,0-.257.016-.53,0-.788l-.032-.257c-.048-.225-.145-.321-.257-.257a.357.357,0,0,0-.129.209c-.113.595-.032.788.482,1.029m65.617-42.1a.736.736,0,0,0,.129.209l.145.048c0-.145-.113-.225-.338-.193a1.349,1.349,0,0,0-.08-.756.482.482,0,0,0-.418-.257.359.359,0,0,0-.209.1l.016.193a1.767,1.767,0,0,0,.756.659M33.954,38a.567.567,0,0,0,.514-.45c.032-.386.032-.8.032-1.206a.416.416,0,0,0,.418-.257,8.831,8.831,0,0,1,.434-1.543l-.193-.177a.354.354,0,0,0-.257,0,.619.619,0,0,0-.305.418c-.032.547-.032,1.077-.048,1.607h-.595c.016-.723.032-1.431.064-2.154a6.452,6.452,0,0,1,.145-.8,1.02,1.02,0,0,1,.45-.643.582.582,0,0,1,.514.016l.225.048a.41.41,0,0,0,.129-.5.488.488,0,0,0-.4-.289c-.354-.032-.723-.032-1.077-.032-.675.016-.948.113-.772.707a2.565,2.565,0,0,1-.193,1.881c-.048.595-.113,1.222-.161,1.849a2.988,2.988,0,0,0,.064.53c.016.064.08.193.145.193a.259.259,0,0,0,.225-.129c.193-.273.273-.659.691-.723a14.779,14.779,0,0,0,0,1.688c-.161.016-.354.016-.514.048a.612.612,0,0,0-.418.289.366.366,0,0,0-.064.257c.064.241.177.305.321.161.257-.241.579-.4.627-.788M127.461,5.7l1.029-.048.241-.1.08-.129c-.064-.032-.145-.113-.209-.113-.434-.048-.868-.048-1.077.45l-.241.08-.1.145c.161.032.257-.064.273-.289M24.165,81.738l.032.482.1.209.129.048a.417.417,0,0,0,.064-.45.368.368,0,0,0-.37-.241,3.111,3.111,0,0,0-.145-1.334.549.549,0,0,0-.4-.321,4.611,4.611,0,0,0-.064-1.559c-.048-.225-.161-.321-.273-.241a.357.357,0,0,0-.129.209,2.339,2.339,0,0,0,.1,1.286.534.534,0,0,0,.418.273c.016.37.016.723.048,1.077.016.273.145.4.5.563m-4.935.53.209.4.113-.161a.336.336,0,0,0-.386-.177,2.624,2.624,0,0,0-.113-1.27l-.145-.113c-.048.08-.129.145-.145.225a.972.972,0,0,0,.466,1.093m2.733-10.384.08.241.145.08c.032-.145-.048-.241-.273-.273a6.216,6.216,0,0,0-.161-1.8l-.113-.1c-.048.08-.129.145-.129.225,0,.354-.016.691.016,1.045a.683.683,0,0,0,.434.579m16.364,6.076a2.86,2.86,0,0,1,.257-1.784c.08-.129-.048-.289-.241-.338a.448.448,0,0,0-.257.016c-.354.418-.257,1.013-.514,1.479-.145.273-.048.482.289.53a2.939,2.939,0,0,0,.53.032,6.663,6.663,0,0,0,.177,2.4l.145-.08c.161-.418.289-.852.466-1.254a3.575,3.575,0,0,0,.257-1.575.652.652,0,0,0,.466-.563,7.6,7.6,0,0,0,.016-1.045.37.37,0,0,0-.145-.225c-.1-.032-.209.08-.257.305a3.914,3.914,0,0,0-.032,1.559.609.609,0,0,0-.5.129,1.5,1.5,0,0,1-.659.418M31.221,72.5c-.016-.563-.032-1.093-.064-1.64,0-.225-.129-.338-.305-.305a.458.458,0,0,0-.225.129c-.145.129-.257.305-.177.466.161.4.37.8.579,1.206l.241.1a5.787,5.787,0,0,1-.45,2.074c-.145.241.016.5.177.723a.512.512,0,0,0,.466.225c.161-.016.257-.193.289-.386a5.837,5.837,0,0,1,.4-1.27.6.6,0,0,0,.016-.5,1.141,1.141,0,0,0-.948-.82m-9.806,9.243.193.4.113-.161a.314.314,0,0,0-.354-.193,2.788,2.788,0,0,0-.225-1.575,3.755,3.755,0,0,1-.338-1.013,3.991,3.991,0,0,0-.643-1.463l-.177-.08a.493.493,0,0,0-.145.225,2.922,2.922,0,0,0,0,.53c.08.547.45.981.53,1.527a4.306,4.306,0,0,0,.289.756,3.125,3.125,0,0,0,.514.932l.241.113m12.538-7.6a1.159,1.159,0,0,0-.016-.739.685.685,0,0,0-.386-.273c-.177-.064-.321.032-.434.193a.467.467,0,0,0,.161.627,1.137,1.137,0,0,0,.723.145,4.414,4.414,0,0,0-.386,1,4.553,4.553,0,0,0-.016,1.865c0,.08.08.193.113.193a.307.307,0,0,0,.225-.113,1.507,1.507,0,0,0,.482-.932,5.385,5.385,0,0,0-.1-1.607.488.488,0,0,0-.37-.354m70.038-48.674a.708.708,0,0,0-.257-.032c-.434.016-.547.064-.659.338a2.1,2.1,0,0,1-.756,1.061,2.3,2.3,0,0,0-.82,1.045c.064.064.113.145.193.177a.429.429,0,0,0,.466-.113,10.55,10.55,0,0,0,1.64-1.752.943.943,0,0,0,.161-.772.6.6,0,0,0,.225-.064l.08-.161c-.161-.032-.257.048-.273.273M89.733,35.314a1.32,1.32,0,0,0-.161-.788A20.918,20.918,0,0,1,88.48,32.71a1.6,1.6,0,0,0-.354-.386c-.177-.161-.321-.161-.418-.016a.338.338,0,0,0-.113.225A1.874,1.874,0,0,0,88.11,34c.45.418.932.8,1.415,1.206.064.048.177.032.257.048a1.536,1.536,0,0,0,.4,1.222c.193.209.354.4.547.579.4.37.659.611,1.35-.048.321-.321.305-.547-.113-.82l-.241-.145a.835.835,0,0,1-1.157-.129,5.948,5.948,0,0,0-.579-.53.674.674,0,0,0-.257-.064M17.606,68.059a.6.6,0,0,0,.064.241l.177.064c.032-.161-.08-.241-.305-.257-.032-1.077.113-2.154-.016-3.247-.032-.209-.177-.321-.289-.257a.283.283,0,0,0-.145.209c-.064.627-.113,1.254-.161,1.833l-.129.289a2.1,2.1,0,0,0-.273,1.8c.016.08.08.193.145.209a.281.281,0,0,0,.225-.113c.209-.289.321-.643.707-.772M11.53,69.7l.482.177c.4.177.53.145.547-.145a5.125,5.125,0,0,0-.321-2.556,3.947,3.947,0,0,1-.161-.756l.482.209c.338.145.563.048.595-.225a10.881,10.881,0,0,0,.032-2.17l.225-.08.032-.209c-.161,0-.241.113-.225.338a2.546,2.546,0,0,1-.772-.723l-.161-.048a12.105,12.105,0,0,0-.161,2.958.63.63,0,0,0-.482.563,19.163,19.163,0,0,0-.048,2.717c-.37.145-.482.273-.5.547a10.837,10.837,0,0,0,.032,2.7c.016.1.064.225.129.241a.485.485,0,0,0,.45-.161.84.84,0,0,0,.257-.466,1.645,1.645,0,0,0-.064-1.077,3.649,3.649,0,0,1-.37-1.833M2.239,65.873a.846.846,0,0,1,.53.563.693.693,0,0,0,.321.386,2.519,2.519,0,0,0,.4-.321,1.082,1.082,0,0,0,.241-.466,5.582,5.582,0,0,0,.08-1.865.439.439,0,0,0-.129-.225c-.129-.032-.273.08-.321.273-.08.257-.08.514-.145.772,0,.064-.113.145-.145.145-.08-.016-.193-.08-.209-.145a.644.644,0,0,0-.289-.434c-.145-.1-.273.145-.289.563v.8a.374.374,0,0,0-.37.241.53.53,0,0,0-.016.466l.145.161a.515.515,0,0,0,.209-.434l-.016-.482m112.636-50.86a1.049,1.049,0,0,0,.772-.113c.691-.4,1.3-.916,2.009-1.318a4.071,4.071,0,0,0,.8-.691c.177-.177.145-.321-.064-.4l-.241-.032a25.09,25.09,0,0,0-2.684,1.72,1.416,1.416,0,0,0-.354.4,4.305,4.305,0,0,0-.193.482.567.567,0,0,0-.547.563l-.756-.289c-.643.129-1.013.739-1.624.916a10.658,10.658,0,0,1-1.109.788,6.158,6.158,0,0,0-1.961,1.849c-.177.08-.257.177-.257.273l.145-.1.048-.225c.257-.032.53-.048.788-.064a17.336,17.336,0,0,0,1.8-1.093,9.062,9.062,0,0,1,2.636-1.7.446.446,0,0,0,.241-.4c.482-.129.482-.129.547-.563M21.962,78.989l.1.225.161.064c.016-.161-.1-.241-.305-.225a9.147,9.147,0,0,0-.032-1.977,2.234,2.234,0,0,1-.5-1.64c0-.434-.032-.884-.048-1.318,0-.225-.145-.354-.5-.547a6.141,6.141,0,0,0-.064-1.624c-.032-.225-.161-.338-.241-.289a.382.382,0,0,0-.145.209,4.194,4.194,0,0,0,.1,1.35.451.451,0,0,0,.386.321c-.016.354-.048.707-.032,1.061.016.434.064.884.1,1.318.032.53.048,1.061.064,1.559l.547,1.238a.489.489,0,0,0,.418.273m8.214-13.117a11.853,11.853,0,0,0,.032,2.138c.032.241.161.321.257.257a.3.3,0,0,0,.129-.225,4.7,4.7,0,0,1,.434-1.8.467.467,0,0,0-.37-.321c-.177-.016-.354,0-.53,0a5.981,5.981,0,0,0,0-1.607A.4.4,0,0,0,30,64.088c-.1-.1-.241-.016-.338.193a5.918,5.918,0,0,0-.338.723,2.236,2.236,0,0,0-.225.772,16.868,16.868,0,0,0,.032,3.488c.016.08.08.193.161.209.1.016.241-.113.257-.321.064-.884.064-1.784.129-2.684a.774.774,0,0,1,.5-.595M21.93,67.56l-.193-.418-.129.177a.3.3,0,0,0,.386.193.95.95,0,0,0,.53,1.125,3.106,3.106,0,0,1,.852.659,1.2,1.2,0,0,1,.257.466,6.74,6.74,0,0,1,.048.8.653.653,0,0,0,.193.5.553.553,0,0,0,.209-.466,10.651,10.651,0,0,1,.048-1.9,2.038,2.038,0,0,0-.048-.547.348.348,0,0,0-.321-.338c-.579-.048-.707-.145-.739-.514-.032-.45-.032-.9-.1-1.35-.032-.273-.129-.338-.225-.225a.414.414,0,0,0-.113.241,7.039,7.039,0,0,0-.064.82.711.711,0,0,1-.595.772M2.239,48.367a.456.456,0,0,0,.4-.305,2.792,2.792,0,0,1,1-1.849.8.8,0,0,0,.225-.482A8.784,8.784,0,0,1,4.328,44.2a1.138,1.138,0,0,0-.145-1.029,3.8,3.8,0,0,1-.981.916,1.139,1.139,0,0,0-.45.627c-.113.354-.273.675-.4,1.013-.032.9-.032,1.8-.064,2.684l-.225.1-.048.177c.113,0,.193-.113.225-.321m33.355-10.32a4.923,4.923,0,0,0-.08-.514l-.064-.241-.145-.064a.371.371,0,0,0-.08.466.573.573,0,0,0,.434.305,1.948,1.948,0,0,1-.321,1.222c-.161.209-.273.45-.434.659a2.638,2.638,0,0,1-.386.338c-.08-.37-.193-.5-.45-.53-.209,0-.4.064-.418.241-.016.161.193.273.37.289l.514-.032a1.626,1.626,0,0,0,.225,1.029.786.786,0,0,0,.4.321.277.277,0,0,0,.386-.241c.08-.354.064-.707.129-1.061a.649.649,0,0,1,.514-.547l-.048-.048a6.283,6.283,0,0,0,.161,1.318l.129.113a.6.6,0,0,0,.209-.193,7.5,7.5,0,0,0,.643-1.157,9.406,9.406,0,0,1,1.013-1.575l.048-.257a2.924,2.924,0,0,1,.305-1.029c.145-.289.064-.466-.241-.659a.331.331,0,0,0-.547.241c-.145.611-.064,1.27-.547,1.784a.4.4,0,0,1-.225.129.394.394,0,0,1-.241-.016c-.37-.321-.82-.241-1.254-.289M42.152,71.4c-.032-.53-.032-1.077-.08-1.607-.016-.225-.145-.338-.241-.273a.352.352,0,0,0-.129.225,8.027,8.027,0,0,0,0,1.077.63.63,0,0,0,.514.53c-.048.305-.273.434-.514.547-.45.209-.45.225-.289.547.08.161.161.321.225.482a3.03,3.03,0,0,1-.032.547,2.7,2.7,0,0,1-.145.514,7.234,7.234,0,0,0-.257.772,8.039,8.039,0,0,1-.45,1.833,3.233,3.233,0,0,0-.113.8l-.032.8a.628.628,0,0,0,.161.5l.145-.209a3.726,3.726,0,0,1,.37-1,7.842,7.842,0,0,0,.8-1.7l.08-.82a1.843,1.843,0,0,1,.37-1c.177-.209.338-.434.5-.643a1.059,1.059,0,0,0-.048-1.254,2.255,2.255,0,0,0-.836-.675M149.467,2.458c-1.125,0-2.138-.016-3.135,0a18.714,18.714,0,0,1-5.674-.386,1.593,1.593,0,0,0-.547-.064c-1.093.016-2.17.048-3.263.08a2.814,2.814,0,0,0-.53.1,6.084,6.084,0,0,1-2.154.305,1.641,1.641,0,0,0-.788.145l-.1.129c.08.048.161.129.241.129,2.893.064,5.8.113,8.761.177a5.062,5.062,0,0,0,2.074.45,8.892,8.892,0,0,1,2.684.386,1.658,1.658,0,0,0,1.077-.048A3.928,3.928,0,0,1,150,3.631c.257.016.53,0,.8,0a1.311,1.311,0,0,0,.756-.305.7.7,0,0,0,.225-.932,8.417,8.417,0,0,1-.322-1.029.545.545,0,0,0-.145-.225.725.725,0,0,0-.161.225c-.064.161-.1.354-.161.514-.064.193-.209.338-.37.305-.482-.129-.868.209-1.157.273M6.595,54.942a16.7,16.7,0,0,0,.048,2.684.594.594,0,0,0,.113.225l.177.161c.048-.08.145-.145.161-.225A10.709,10.709,0,0,0,7.125,55.1a5.534,5.534,0,0,0-.177-1.624,1.138,1.138,0,0,1,.08-1l-.145-.514c.064-.08.113-.161.193-.193a1.036,1.036,0,0,0,.675-1.029c.048-.466.064-.916.1-1.35a3.881,3.881,0,0,0,.4-1.849c-.032-.45-.032-.9-.048-1.366-.016-.08-.064-.209-.113-.225-.113-.032-.241.1-.338.289-.161.321-.321.627-.514.981l-.145,1.045a.806.806,0,0,1-.4.659.845.845,0,0,0-.45.627,18.426,18.426,0,0,0-.113,3.52,5.06,5.06,0,0,0,.466,1.865M2.3,50.553a4.65,4.65,0,0,0,.305,2.379A12.3,12.3,0,0,1,2.9,54.267c.048.257.064.514.1.788l.129.129a1.2,1.2,0,0,0,.145-.241l.016-.257.032-.547a.921.921,0,0,1,.321-.707c.225-.129.514,0,.756.129.305.145.579.048.611-.193a5.149,5.149,0,0,1,.321-1.3l.048-.273a.432.432,0,0,0-.225-.45.305.305,0,0,0-.45.113c-.241.482-.45,1-1.077,1.093A1.388,1.388,0,0,1,3.4,52.08c-.032-.627-.048-1.27-.1-1.881-.016-.209-.129-.37-.273-.37a.483.483,0,0,0-.45.257,3.512,3.512,0,0,0-.273.466m4.774,14.9-.1.257a3.184,3.184,0,0,0-.338,1.849c.016.177.016.354.016.547a1.179,1.179,0,0,0,.241.756c.08.08.241-.305.257-.691,0-.354.016-.723.032-1.093l.113-.241c.113-.1.273-.064.4.113.113.177.241.289.4.257.048-.016.1-.145.1-.241a24.833,24.833,0,0,0-.064-4.372c-.016-.08-.048-.209-.113-.225a.46.46,0,0,0-.434.177.705.705,0,0,0-.273.466l-.241,2.443m30.2,6.671a4.146,4.146,0,0,0,.064.8.677.677,0,0,0,.257.45.316.316,0,0,0,.45-.1.9.9,0,0,0,.145-.5c.016-.547.048-1.077.048-1.607.016-.563.4-1,.547-1.495a2.371,2.371,0,0,0,.048-1.061c-.016-.08-.1-.145-.129-.225a.323.323,0,0,0-.434-.209.624.624,0,0,0-.4.321,4.129,4.129,0,0,1-.386,1.27,1.373,1.373,0,0,0-.209.756c-.016.354,0,.707,0,1.591M1.162,60.568c.016.707.032,1.238.08,1.768a1.57,1.57,0,0,0,.113.53,1.091,1.091,0,0,0,.466.611c.193.145.305.1.37-.145a1.693,1.693,0,0,0-.257-1.27,1.481,1.481,0,0,1,.193-1.736c.113-.145.225-.257.338-.418a1.383,1.383,0,0,0,.289-1,.654.654,0,0,0-.482-.563,2,2,0,0,0-.53-.064.549.549,0,0,0-.53.723l.305.675-.354.884m23.775,9.4c-.064.161-.209.305-.209.482a10.2,10.2,0,0,0,.354,4l.289,1.865c.016.08.1.145.145.209.032-.08.113-.161.113-.241a20.344,20.344,0,0,0,.016-4.421c-.209-.691-.354-1.206-.514-1.72-.016-.064-.129-.113-.193-.177M29.9,77.591c-.691.209-.707.209-1.19-.257-.145-.129-.273-.289-.45-.241-.129.016-.193.209-.193.418-.032.547-.048,1.077-.08,1.624a19.108,19.108,0,0,1,1.238,1.752l.209.064a.382.382,0,0,0,.145-.209,3.5,3.5,0,0,0,.032-.82,2.269,2.269,0,0,1,.305-1.543.735.735,0,0,0-.016-.788M17.879,79.343c.048-.08.129-.145.145-.225.113-.707.032-1.431.1-2.138a13.329,13.329,0,0,0-.064-1.945c-.161-.289-.305-.611-.482-.932-.1-.193-.241-.289-.354-.257-.064.016-.1.161-.113.257a7.353,7.353,0,0,0-.048,1.881,8.681,8.681,0,0,0,.643,3.151c.032.08.113.129.177.209M4.441,61.066c-.032-.675-.048-1.029-.048-1.382a2.88,2.88,0,0,0-.4-1.27c-.08-.177-.145-.354-.321-.386-.113-.016-.209.145-.241.37a9.041,9.041,0,0,0,.032,1.865c.032.466.354.82.45,1.254.048.177.048.354.1.53.048.209.177.321.289.257a.294.294,0,0,0,.129-.209c.016-.45.016-.9.016-1.029M38.069,32.694l.45.321c.129.113.257.241.4.354l.225.064a.461.461,0,0,0,.193-.45,1.06,1.06,0,0,0-.852-.884,7.255,7.255,0,0,0-1.318-.016.925.925,0,0,0-.691.386,1.348,1.348,0,0,0-.193,1.254c.08.225.193.273.418.161.321-.193.466-.514.739-.756a5.453,5.453,0,0,1,.627-.434m-33,27.343c.193.305.418.691.643,1.077l.145.048.113-.241a2.62,2.62,0,0,0-.289-1.3,1.107,1.107,0,0,1,.016-.514,4.093,4.093,0,0,0,.386-1.286,1.856,1.856,0,0,0-.064-.788c-.1-.257-.209-.273-.418-.129a1.076,1.076,0,0,0-.514.884c-.032.723-.016,1.431-.016,2.25m67.9-2.717c.193-.354.209-.5-.113-.643a4.294,4.294,0,0,1-1.3-1.334l-.193-.08a.325.325,0,0,0-.129.225,1.264,1.264,0,0,0,.1.8,8.01,8.01,0,0,1,.53,1.511.37.37,0,0,0,.418.273.662.662,0,0,0,.434-.289,4.329,4.329,0,0,0,.257-.466M56.443,64.972a4.993,4.993,0,0,0,.08,1.64,1.063,1.063,0,0,0,.45.611q.289.241.386-.1a2.973,2.973,0,0,0-.209-2.283l-.161-.209c-.161-.145-.305-.161-.418-.08a.458.458,0,0,0-.129.225c-.016.177,0,.354,0,.193M21.818,64.86a2.712,2.712,0,0,0-.1-1.334.4.4,0,0,0-.418-.257.493.493,0,0,0-.4.289l-.064.257c0,.643,0,1.286.032,1.913a2.124,2.124,0,0,0,.193.5.69.69,0,0,0,.354-.354c.129-.338.273-.675.4-1.013m-8.873,7.877c-.048.113-.113.161-.129.241a1.209,1.209,0,0,0,.048.788,4.578,4.578,0,0,1,.338,1.543,13.385,13.385,0,0,0,.177,1.591c.016.064.08.113.129.177a.881.881,0,0,0,.129-.241,9.181,9.181,0,0,0,.048-2.4,1.792,1.792,0,0,0-.225-.756l-.514-.948m29.61-16.605a.784.784,0,0,0-.016-.273,3.967,3.967,0,0,1-.466-1.495c-.016-.08-.08-.209-.145-.225a.527.527,0,0,0-.45.193.907.907,0,0,0-.225.981c.161.305.338.627.514.932a.322.322,0,0,0,.4.225.576.576,0,0,0,.386-.338M12.141,59.78c-.048-.723-.08-1.334-.113-1.977a.458.458,0,0,0-.1-.225l-.161-.113c-.064.064-.145.129-.161.209a26.716,26.716,0,0,0,.016,3.761c.016.193.129.338.241.338.048,0,.129-.129.145-.209.048-.627.08-1.254.129-1.784M8.556,32.839a.411.411,0,0,0-.4-.241,1.456,1.456,0,0,0-.788.113c-.321.161-.627.354-.9.514-.1.177-.048.321.177.4a.981.981,0,0,1,.563.514c.225.4.321.418.45.032.161-.53.611-.868.9-1.334M21.995,74.6h0v.8a2.959,2.959,0,0,0,.048.53.759.759,0,0,0,.257.45c.145.129.289.273.418.225a.355.355,0,0,0,.145-.466,6.257,6.257,0,0,1-.37-1c-.048-.45-.032-.9-.048-1.334l-.016-.273c-.08-.225-.177-.305-.273-.209l-.161.193V74.6M6.29,69.795l-.273.048a.579.579,0,0,0-.129.916c.241.257.482.514.756.756.064.064.161.145.225.113.161-.016.225-.161.257-.386a1.179,1.179,0,0,0-.836-1.447m4.517-4.742c-.048.08-.129.129-.161.209a2.928,2.928,0,0,1-.466,1.19,1.139,1.139,0,0,0,0,1.447,1.218,1.218,0,0,0,.739-1.013,4.714,4.714,0,0,0-.113-1.833m48.128,7.121c-.064.048-.161.08-.193.161-.338.627-.675,1.27-1,1.913l.1.209a.275.275,0,0,0,.209.113,1.15,1.15,0,0,0,.691-.386,1.1,1.1,0,0,0,.418-.948,2.734,2.734,0,0,0-.225-1.061m-31.587,5.16c-.032-.611-.048-1.061-.08-1.495a.794.794,0,0,0-.08-.257c-.064-.161-.209-.321-.386-.273a.262.262,0,0,0-.177.4,2.484,2.484,0,0,1,.257,1.013,6.948,6.948,0,0,0,.129,1.833c.016.064.1.113.145.161a1.294,1.294,0,0,0,.145-.225c.016-.434.032-.884.048-1.157M9.038,70.373a1.549,1.549,0,0,0-.273,0c-.321.129-.45.273-.466.547A2.2,2.2,0,0,0,8.8,72.4a.414.414,0,0,0,.4.209c.064-.016.1-.145.113-.225a3.309,3.309,0,0,0,.08-1.318,1.494,1.494,0,0,0-.354-.691m-6.88-15.11c.016.273,0,0-.016-.257a.591.591,0,0,0-.129-.241.378.378,0,0,0-.434-.193.39.39,0,0,0-.257.418c-.016.273.161.482.257.739.129.321.209.675.321,1l.145.129a.758.758,0,0,0,.1-.241c.016-.273.016-.53.016-1.35M63.8,57.98c-.032.064-.113.129-.129.193a6.56,6.56,0,0,0-.129,2.62,1.781,1.781,0,0,0,.193.482A1.123,1.123,0,0,0,64,60.568,11.616,11.616,0,0,0,63.95,58.2L63.8,57.98M14.327,72.463v-.627a1.34,1.34,0,0,0-.563-1.157c-.177-.129-.321-.145-.434,0a.547.547,0,0,0-.145.209c0,.177,0,.354.016.53a.711.711,0,0,0,.08.241c.145.225.305.45.434.675a.624.624,0,0,0,.321.4c.1.064.289-.338.289-.273m29.835,4.1a.651.651,0,0,0-.257.45,4.662,4.662,0,0,1-.338,1.527c-.032.064,0,.161-.016.241-.016.177.37.563.53.514.129-.048.177-.193.209-.4a12.925,12.925,0,0,0-.048-2.09l-.08-.241M12.4,49.2a2.384,2.384,0,0,0-.209,1.318,1.632,1.632,0,0,0,.177.514c.08.209.482.434.595.354a.692.692,0,0,0,.161-.5,1.747,1.747,0,0,0-.161-.772c-.177-.321-.37-.611-.563-.916M5.02,48.608c-.048-.514-.064-.868-.113-1.222a.352.352,0,0,0-.129-.225c-.1-.064-.241.064-.273.273a5.788,5.788,0,0,0-.1,1.061c-.016.45-.273.836-.177,1.27a.322.322,0,0,0,.161.193.275.275,0,0,0,.257-.032.9.9,0,0,0,.305-.4,5.14,5.14,0,0,0,.064-.916m49.124,6.317c-.08-.209-.209-.289-.37-.209a1.146,1.146,0,0,0-.563,1.543.343.343,0,0,0,.177.161.354.354,0,0,0,.241-.1,1.463,1.463,0,0,0,.514-1.4M51.363,78.668a.708.708,0,0,0-.032-.257.388.388,0,0,0-.4-.273.363.363,0,0,0-.386.289,4.34,4.34,0,0,0-.064.788c0,.064.1.161.145.209a.368.368,0,0,0,.466-.032.8.8,0,0,0,.273-.723M41.67,58.623l.016.289c.048.241.161.321.354.225a.983.983,0,0,0,.4-1.366.562.562,0,0,0-.45-.305c-.145-.016-.193.129-.209.354l-.113.8m-36.136,7.8c-.016-.338-.016-.707-.064-1.045a.957.957,0,0,0-.257-.418.342.342,0,0,0-.257-.048.409.409,0,0,0-.177.193c-.064.257.113.482.161.723.048.338.048.691.1,1.045.032.193.177.305.305.273.048,0,.129-.113.145-.193.032-.177.032-.354.048-.53M19.808,64.86c0,.675-.032,1.109.016,1.543.016.209.161.321.257.273a.346.346,0,0,0,.145-.193,8.393,8.393,0,0,0,.016-2.106c-.016-.193-.161-.322-.273-.289-.048.016-.1.145-.113.225l-.048.547M30.064,75.919V75.4a1.322,1.322,0,0,0-.4-.981c-.064-.064-.193-.145-.241-.129a.38.38,0,0,0-.193.434,3.255,3.255,0,0,0,.145.53c.08.257.145.514.241.772.129.5.273.675.321.434l.129-.547m23.26-.981a1.388,1.388,0,0,0,.225-.466,8.181,8.181,0,0,0,.032-1.881.4.4,0,0,0-.1-.225c-.08-.129-.209-.032-.225.209-.048.611-.08,1.254-.1,1.865a2,2,0,0,0,.161.5M7.077,45.136V43.513a.325.325,0,0,0-.129-.225c-.064-.064-.177.032-.225.273a6.31,6.31,0,0,0-.064,1.559c0,.064.08.145.145.209.113.064.225-.032.273-.193M32.411,34.028a4.043,4.043,0,0,0,.193-.466l-.048-.193a.361.361,0,0,0-.45-.016,2.29,2.29,0,0,0-.579.868c-.064.161-.016.305.193.4a.316.316,0,0,0,.434-.129l.257-.466M3.075,69.505l.129-.241c.032-.161.032-.354.064-.514a.5.5,0,0,0-.225-.466.343.343,0,0,0-.45.016.508.508,0,0,0-.113.723.856.856,0,0,0,.595.482m43.8,2.106c-.048.08-.129.145-.145.225a4.767,4.767,0,0,0-.064,1.784c.016.08.1.145.145.225l.113-.193a5.2,5.2,0,0,0,.032-1.8.711.711,0,0,0-.08-.241m7.394,1.141c.016.241.032.514.064.772,0,.08.08.225.113.225.113,0,.177-.145.193-.37.016-.434.032-.868.016-1.318,0-.225-.1-.37-.193-.354a.3.3,0,0,0-.113.225l-.08.82M15.934,75.485c-.016-.161-.048-.5-.1-.852a.27.27,0,0,0-.145-.209c-.064-.064-.225.032-.241.257a3.1,3.1,0,0,0,.193,1.784l.129-.032c.193-.225.177-.5.161-.948m26.732,3.279h0v-.547l-.016-.273a.545.545,0,0,0-.145-.225c-.08-.064-.209.048-.241.273a4.6,4.6,0,0,0-.048,1.624.355.355,0,0,0,.161.209c.1.064.241-.032.289-.257a4.473,4.473,0,0,0,0-.8m58.416-51.857.209-.129a1.042,1.042,0,0,0,.386-.627.361.361,0,0,0-.177-.434l-.209.064a1.145,1.145,0,0,0-.482.547.449.449,0,0,0,.1.482l.177.1M37.137,46.76a.41.41,0,0,0-.1-.209l-.193-.08a.791.791,0,0,0-.563.82.453.453,0,0,0,.1.241c.1.145.209.113.386-.08a1.129,1.129,0,0,0,.37-.691M128.715,3.02c.386-.032.643-.064.9-.1.225-.032.354-.129.305-.209a.315.315,0,0,0-.225-.129.586.586,0,0,0-.241-.032c-.177-.016-.354-.016-.514-.016-.305-.016-.659.193-.579.305a.431.431,0,0,0,.354.177M92.434,33.675a.4.4,0,0,0-.145-.482c-.177-.145-.354-.386-.627-.321-.161.048-.193.273-.1.45a1.162,1.162,0,0,0,.547.563c.129.1.257,0,.321-.209m7.893-4.887a.711.711,0,0,0,.08-.241.272.272,0,0,0-.113-.193.3.3,0,0,0-.434.048,1.054,1.054,0,0,0-.193.723.663.663,0,0,0,.145.482.583.583,0,0,0,.338-.338,4.262,4.262,0,0,1,.177-.482M17.879,81.4c-.145-.289-.289-.595-.45-.884-.032-.08-.161-.193-.177-.177a.425.425,0,0,0-.177.434,1.749,1.749,0,0,0,.048.5.506.506,0,0,0,.354.321c.161.064.305-.016.4-.193m8.954-10.416a4.413,4.413,0,0,0,0-.659c-.048-.193-.161-.305-.289-.289-.064,0-.129.113-.161.177a1.589,1.589,0,0,0,.1,1.27l.145.1a.663.663,0,0,0,.161-.209l.048-.386m27.89-.659a.779.779,0,0,0,0-.273.981.981,0,0,0-.514-.563l-.225-.032a.385.385,0,0,0-.177.466,1.142,1.142,0,0,0,.4.659.317.317,0,0,0,.225.1.418.418,0,0,0,.289-.354M27.3,67.512h.016v-.273a.766.766,0,0,0-.145-.514.668.668,0,0,0-.209.482,6.979,6.979,0,0,0,.016.82c.032.241.145.354.209.273a.422.422,0,0,0,.113-.241c.016-.177,0-.354,0-.547M15.324,67.8l-.032-.547A.708.708,0,0,0,15.259,67c-.032-.1-.08-.225-.129-.225-.1-.016-.193.129-.209.354a4.425,4.425,0,0,0-.032.8.406.406,0,0,0,.273.37.5.5,0,0,0,.161-.5m-1.559-1.559.032.547a.757.757,0,0,0,.064.257l.145.209c.048-.064.145-.113.145-.177a6.9,6.9,0,0,0,.113-.8c.032-.338-.177-.643-.305-.514a.535.535,0,0,0-.193.482M23.843,64.41a.685.685,0,0,0-.257.418,2.939,2.939,0,0,0,.08,1.061.352.352,0,0,0,.129.225c.113.048.273-.032.321-.257a4.225,4.225,0,0,0,.064-.788.774.774,0,0,0-.338-.659m42.373-.675a2.624,2.624,0,0,0-.08-.53c-.016-.1-.064-.225-.129-.241-.1-.016-.209.113-.257.321a2.621,2.621,0,0,0,.016,1.061.333.333,0,0,0,.145.209c.1.032.209-.08.257-.305a2.785,2.785,0,0,0,.048-.514M39.1,35.459h.145a.778.778,0,0,0,.161-.466.5.5,0,0,0-.145-.45c-.129-.145-.321.145-.321.45a.742.742,0,0,0,.161.466M46.364,82.59a.737.737,0,0,0,.466-.547c.016-.048-.1-.145-.161-.161-.177-.08-.305-.016-.434.145a.418.418,0,0,0-.048.45l.177.113M27.958,81.417a.752.752,0,0,0-.032-.273.444.444,0,0,0-.177-.209c-.016-.016-.113.032-.145.1a.664.664,0,0,0-.113.5.631.631,0,0,0,.193.5c.1.1.273-.257.273-.611M6.081,75.035l-.032-.257c-.048-.193-.161-.37-.289-.338-.177.048-.225.241-.193.434l.048.273c.032.177.145.37.257.321a.435.435,0,0,0,.209-.434m42.084-1.109-.032-.273c-.032-.193-.113-.354-.225-.338-.064,0-.129.145-.129.209a2.125,2.125,0,0,0-.032.547c.016.209.145.37.241.321a.4.4,0,0,0,.177-.466M36.43,73.315a.792.792,0,0,0,.241-.691.69.69,0,0,0-.209-.466.64.64,0,0,0-.225.434.958.958,0,0,0,.193.723M16.77,71.675l-.161.113a.9.9,0,0,0-.048.707c.016.064.08.193.129.193.113,0,.209-.129.225-.305a.926.926,0,0,0-.145-.707m39.7-3.553-.225.064c-.177.1-.193.257-.032.418a.987.987,0,0,0,.386.305c.129.064.241-.08.289-.273a.431.431,0,0,0-.418-.514m-10.545.82-.016-.273c-.048-.225-.145-.321-.241-.241a.378.378,0,0,0-.113.225.708.708,0,0,0-.032.257c0,.354.161.659.273.514a.651.651,0,0,0,.129-.482m97.59-63.849c.161-.016.338-.032.514-.064l.1-.113c-.129-.161-.9-.161-1,0l.129.129.257.048M61.908,65.422l-.241.064a.445.445,0,0,0-.193.466c.032.305.193.305.547-.016.177-.145.209-.289.1-.4a.667.667,0,0,0-.209-.113m8.825-3.729c-.032.37.064.723.177.595a.744.744,0,0,0,.145-.482.615.615,0,0,0-.129-.482c-.113.032-.177.161-.193.37m-50.008-.386c.016-.418-.113-.707-.209-.53a.615.615,0,0,0-.113.5.8.8,0,0,0,.032.273l.1.241a.481.481,0,0,0,.193-.482m24.144-3.665a.328.328,0,0,0,.418-.193.342.342,0,0,0,.032-.434c-.113-.225-.273-.177-.595.129-.161.145-.177.289-.064.4l.209.1m29.256-3.006a.34.34,0,0,0-.064.45.437.437,0,0,0,.418.257.336.336,0,0,0,.209-.113.7.7,0,0,0-.354-.595h-.209m-1.784-1.415c.08-.016.209-.129.193-.145a.9.9,0,0,0-.482-.595l-.161.1a.412.412,0,0,0,.016.466.358.358,0,0,0,.434.177M33.7,86.368l.145-.129A.4.4,0,0,0,33.809,86c-.1-.161-.193-.1-.209.145a.458.458,0,0,0,.1.225m-4.356-2.733c-.048.064-.129.129-.145.193a.548.548,0,0,0,.1.466c.064-.08.145-.113.161-.193a.545.545,0,0,0-.113-.466M9.087,77.093c-.048.064-.145.113-.161.177a.441.441,0,0,0,.145.45c.048-.064.129-.113.161-.193a.389.389,0,0,0-.145-.434m15.5-.193a.3.3,0,0,0-.225-.354c-.064-.016-.161.1-.177.177a.372.372,0,0,0,.032.257c.064.225.177.273.289.145a.384.384,0,0,0,.08-.225m-14.242.048a.592.592,0,0,0-.016-.241.866.866,0,0,0-.113-.209.347.347,0,0,0-.145.434l.129.209.145-.193m26.845-2.2a.469.469,0,0,0-.177-.434c-.016-.016-.145.1-.177.177a.421.421,0,0,0,.08.45l.161.016a.529.529,0,0,0,.113-.209m-26.3.064a.431.431,0,0,0-.145-.45c-.048.064-.129.113-.145.177a.466.466,0,0,0,0,.257l.129.209.161-.193m17.248-1.495a.36.36,0,0,0-.08.434l.145.193.161-.177a.393.393,0,0,0-.08-.45h-.145M8.01,73.267c-.048.064-.129.113-.161.193a.421.421,0,0,0,.145.45c.048-.064.129-.113.161-.193a.388.388,0,0,0-.145-.45m48.819-2.508L56.7,70.55c-.048.064-.129.113-.161.193a.607.607,0,0,0,0,.241l.113.209a.381.381,0,0,0,.177-.434m-8.745.177a1.3,1.3,0,0,0,.016-.257c-.016-.064-.1-.129-.145-.177a.344.344,0,0,0-.161.434.567.567,0,0,0,.129.209l.161-.209M13.523,68.348c-.064.064-.145.1-.161.161a.453.453,0,0,0,.113.466c.064-.064.145-.113.177-.177a.381.381,0,0,0-.129-.45M8.7,68.525,8.588,68.3c-.064.08-.145.129-.161.209a.469.469,0,0,0-.016.257l.129.225a.444.444,0,0,0,.161-.466m50.812-1.013-.1-.257c-.048.08-.129.145-.129.225-.048.241.048.338.161.273.064-.048.048-.161.064-.241m3.713-3.569c-.048.064-.129.113-.145.177a.489.489,0,0,0,.113.466c.032-.064.113-.113.129-.193a.427.427,0,0,0-.1-.45m-.4-2.524-.145-.193-.145.177a.381.381,0,0,0,.145.434l.145-.177a.609.609,0,0,0,0-.241M16.706,59.571l-.129.193a.337.337,0,0,0,.145.434l.161-.129a.34.34,0,0,0-.016-.434l-.161-.064M159.1,3.1a.332.332,0,0,0-.193-.45.419.419,0,0,0-.177.193.341.341,0,0,0,.209.434L159.1,3.1M136.543,4.917l-.209-.145a.5.5,0,0,0-.466.113c.064.064.113.145.193.161a.463.463,0,0,0,.482-.129M5.293,44.8a.673.673,0,0,0-.129.193.433.433,0,0,0,.064.434l.145-.177a.62.62,0,0,0-.08-.45m31.185.016a.359.359,0,0,0-.161.418l.129.193.145-.177a.4.4,0,0,0-.113-.434m16.01,10.207a.372.372,0,0,0,.032-.257c-.032-.08-.129-.193-.177-.177a.294.294,0,0,0-.273.321c0,.209.113.321.273.305a.364.364,0,0,0,.145-.193m-7.652.048a.421.421,0,0,0,.016-.241c-.016-.064-.1-.193-.145-.177-.145.016-.225.161-.193.338,0,.193.08.305.193.273a.32.32,0,0,0,.129-.193M129.02,6.7a.558.558,0,0,0,.466-.113c-.08-.048-.129-.113-.209-.129a.427.427,0,0,0-.45.1l.193.145M44.033,53.045a.332.332,0,0,0,.418.177l.161-.145a.347.347,0,0,0-.4-.177c-.064.016-.113.1-.177.145M67.824,60.97l-.064-.225-.145-.113a.428.428,0,0,0-.161.177.4.4,0,0,0,.145.434c.1.048.209-.1.225-.273M30.884,86.384l.129.1.032-.145ZM20.725,85.339l-.145-.145c-.209.064-.209.177-.016.273l.161-.129M30.9,84.214l.1.08.032-.145ZM10.228,80.79l-.1.161.145.016ZM152.36,1.8l.1-.193-.177-.016Zm2.717.514.1-.129-.145-.016Zm-117.651,77,.129.113.032-.209ZM31,77l-.08.161.129.016Zm71.677-63.865-.129-.1-.032.145ZM4.184,72.608l-.08.161.129.016Zm40.958-1.4.08-.129-.129-.016Zm-4.324,0,.064-.129-.1-.032Zm-23.951-.643-.129-.1-.016.161Zm11.3-1.157.113.1.032-.145ZM97.578,27.341l.129.113.032-.177ZM54.465,66.885c.193-.08.193-.193.032-.321l-.145.145c0,.064.064.113.113.177m15.85-3.36.1-.161-.129-.016ZM36.88,36.086l.129.113.032-.177ZM10.228,61.693l-.08.145.129.016Zm78.8-25.012-.145-.1-.032.161ZM20.6,59.507l-.08.145.113.016Zm50.41-.434-.161-.129-.016.209ZM37.073,43.786l-.113-.1-.016.161ZM50.045,57.98l.113.1.016-.177ZM49,58.108l.1-.193-.145-.016ZM4.184,55.327l.08-.145-.129-.016Zm53.722-2.25-.145-.1-.016.161Z" transform="translate(-0.004 -0.001)"/><path class="c" d="M12.258,2.738a1.46,1.46,0,0,1-.37,1.238A17.558,17.558,0,0,0,8.915,7.737a7.142,7.142,0,0,1-.643.868,39.154,39.154,0,0,1-2.8,2.861.486.486,0,0,1-.257.08l-.113-.1a1.4,1.4,0,0,1,.177-.772A6.405,6.405,0,0,1,6.487,9.248a5.831,5.831,0,0,0,1.7-2.041c.161-.305.434-.563.611-.868a14.36,14.36,0,0,1,2.974-3.408.679.679,0,0,1,.5-.177Z" transform="translate(76.956 41.271)"/><path class="c" d="M7.532,28.924a2.107,2.107,0,0,1,.321-.45,1.589,1.589,0,0,0,.338-1c-.016-1.35-.032-2.717-.08-4.067-.016-.723-.048-1.463-.048-2.186a.392.392,0,0,0-.305-.37.3.3,0,0,0-.434.177c-.048.145.064.338.129.5a.809.809,0,0,1-.321.948c-.145.113-.289.193-.45.305l-1.334.145a1.424,1.424,0,0,0-.241-.466,3.092,3.092,0,0,1-.932-1.929c0-.193-.209-.273-.37-.305a.379.379,0,0,0-.45.257c-.048.064-.129.129-.129.225a3.328,3.328,0,0,0-.08.8c-.032,1-.032,2.009-.032,3.006a2.737,2.737,0,0,1-.289.418c-.129.129-.579-.225-.579-.434l-.048-.257V22.4a8.534,8.534,0,0,1,.338-.82A1.421,1.421,0,0,0,2.5,20.517c-.1-.257-.225-.5-.338-.739a19.38,19.38,0,0,1,0-2.733,1.355,1.355,0,0,1,.53-.916c.161-.177.321-.161.4.048a2.912,2.912,0,0,1,.145.5A6.33,6.33,0,0,1,3.3,17.768a3.6,3.6,0,0,0,.386,1.3.628.628,0,0,0,.37.338.838.838,0,0,0,.193-.5c0-.273.032-.547.032-.82.048-.225.145-.338.289-.305a.444.444,0,0,1,.209.177A1.623,1.623,0,0,1,4.9,18.2a.491.491,0,0,0,.707.129.43.43,0,0,0,.193-.466A8.309,8.309,0,0,1,5.474,14.1a.674.674,0,0,1,.145-.225l.145.145a2.666,2.666,0,0,1,.161,1.061c.016.45.016.916.048,1.35a6.734,6.734,0,0,1,.482,1.559.473.473,0,0,0,.338.354.626.626,0,0,0,.257-.45,1.976,1.976,0,0,0-.1-1.061c-.161-.338-.321-.659-.45-.932V14.473a2.314,2.314,0,0,0-.434-1.543c-.145-.209-.177-.5-.386-.707a.367.367,0,0,0-.482-.08.868.868,0,0,0-.386.675l-.032,1.929a2.96,2.96,0,0,1-.048.53.736.736,0,0,1-.305.4c-.129.145-.579-.161-.595-.386,0-.193,0-.386.016-.547.113-.354.241-.675.4-1.157,0-.691,0-1.495-.048-2.315a.959.959,0,0,0-.45-.659.354.354,0,0,0-.241-.1.409.409,0,0,0-.338.354,16.127,16.127,0,0,0-.08,2.17.316.316,0,0,1-.145.209c-.1.08-.305-.016-.305-.225q-.048-1.23,0-2.459a2.478,2.478,0,0,0-.354-1.3,1.581,1.581,0,0,1-.177-.788c0-.354,0-.723-.032-1.077a2.124,2.124,0,0,0-.289-1.045,1.606,1.606,0,0,1-.113-1.061,7.536,7.536,0,0,0,.563-2.652c0-.08.08-.161.129-.225a.578.578,0,0,1,.241.418,31.816,31.816,0,0,1,.048,4.63c-.048.53.161,1,.289.884.305-.257.193-.659.193-1.013.016-.723.016-1.463.032-2.186a.844.844,0,0,1,.579-.82L3.69,4.266l.064,4.1c0,.177.048.37.048.547a.845.845,0,0,0,.338.675c.193.161.386.08.659-.289.1-.161.193-.305.354-.321.048,0,.113.145.129.225l.08.82a4.786,4.786,0,0,0,.113.82c.048.241.161.305.289.209.048-.064.129-.145.129-.225a46.014,46.014,0,0,0,0-5.369C5.78,5.118,5.683,4.86,5.6,4.6a.632.632,0,0,1,.241-.45.7.7,0,0,1,.241-.129c.177-.032.289.08.305.321.032.53-.016,1.093-.016,1.624a25.45,25.45,0,0,0,.08,3.311c.129.305.289.627.5,1.029.129,1.19.1,2.459.129,3.729,0,.241.1.354.241.321a.522.522,0,0,0,.209-.161c.08-.177.193-.305.37-.273.048.016.08.161.08.241.032.563.032,1.109.1,1.656a.92.92,0,0,0,.4.675,2.122,2.122,0,0,1,.386.37.736.736,0,0,1-.016.981c-.145.129-.289.225-.418.338a.773.773,0,0,0-.241.482c-.064.643.145,1.093.932.707.289-.161.5-.08.514.289.016.595.482.948.691,1.543.032.723.064,1.543.113,2.363a4.819,4.819,0,0,1,.37,2.122.3.3,0,0,1-.4.241.677.677,0,0,1-.418-.338,2.214,2.214,0,0,1-.289-.739,7.293,7.293,0,0,0-.53-1.543c-.032-.08-.161-.113-.209-.129a.238.238,0,0,0-.193.129.375.375,0,0,0-.113.225c-.016.547-.016,1.093-.016,1.64a1.187,1.187,0,0,0,.08.53c.177.418.45.82.08,1.254.321.5-.08,1.045.113,1.559.064.161-.08.305-.273.354l-.305.032c-.257.016-.53.016-.8.016M6.262,21.53l-.113-.1-.016.145Z" transform="translate(24.778 36.432)"/><path class="c" d="M3.5,9.157c.016-.643.032-1.27.08-1.913a2.012,2.012,0,0,1,.177-.772,3.7,3.7,0,0,0,.354-1.591,9.327,9.327,0,0,1,.1-1.9c.064-.209.177-.321.386-.305a.429.429,0,0,1,.225.113l.113.193a2.743,2.743,0,0,0-.4,1.543c.032,1.19.064,2.363.113,3.553a.345.345,0,0,0-.37.193L4.4,8.4a.435.435,0,0,0,.177-.37.669.669,0,0,0,.5-.547c.08-.707.1-1.415.161-2.122a.669.669,0,0,1,.5-.547l-.08-.064c.016,1,.064,1.993-.016,2.99-.064.82-.016,1.624-.016,2.427-.1.354-.209.691-.305,1.045a.533.533,0,0,0,.161.5c.193.193.466.273.595.53a1.952,1.952,0,0,1,.145.788,4.568,4.568,0,0,0,.273,1.607.331.331,0,0,1-.145.45.438.438,0,0,1-.5-.048.721.721,0,0,1-.209-.177A1.968,1.968,0,0,0,4.334,14c-.1-.161-.241-.305-.257-.466a8.051,8.051,0,0,1-.048-1.077L3.9,12.195a.267.267,0,0,0-.418-.177c-.305.145-.466.434-.37.627.113.241.257.482.354.739a.5.5,0,0,1-.129.482.42.42,0,0,1-.482.177.471.471,0,0,1-.354-.338,1.392,1.392,0,0,1-.1-.514,28.62,28.62,0,0,1,.113-3.938A12.093,12.093,0,0,0,1.441,7.211.918.918,0,0,1,1.3,6.7a9.593,9.593,0,0,1,.129-1.35.719.719,0,0,1,.466-.595l.064.241.177.08c.048-.177-.048-.257-.305-.273l.08-.53a.415.415,0,0,1,.305-.354.446.446,0,0,1,.241.129,1.373,1.373,0,0,1,.5.884,6.774,6.774,0,0,1,.016.8A21.729,21.729,0,0,0,3,8.626c0,.209.113.321.514.514a3.385,3.385,0,0,0-.048,1.334,1.782,1.782,0,0,0,.193.482.342.342,0,0,0,.418.241.549.549,0,0,0,.4-.305,1.75,1.75,0,0,0,.129-.5,4.54,4.54,0,0,0,.016-.627c-.161-.579-.466-.691-.852-.659L3.5,9.157" transform="translate(19.537 40.35)"/><path class="c" d="M2.641,12.331c-.016-.45-.08-.9-.064-1.35.048-1.366.048-2.717.048-4.067,0-.145-.145-.305-.209-.45a.456.456,0,0,0-.4.305c-.08.193-.209.321-.338.273L1.564,6.8c-.016-.177-.016-.354-.048-.547a1.251,1.251,0,0,1,.113-.772,3.587,3.587,0,0,0,.5-1.816,3.3,3.3,0,0,1,.1-.788A1.37,1.37,0,0,1,2.5,2.413c.129-.177.273-.289.4-.209a.346.346,0,0,1,.113.466c-.048.177-.145.321-.209.5a2.992,2.992,0,0,0-.161.5c-.064.257.1.723.209.691a.59.59,0,0,0,.386-.37c.032-.064.177-.145.209-.129a.465.465,0,0,1,.193.45,2.5,2.5,0,0,1-.321,1.013,1.153,1.153,0,0,0,.016.8c.048.161.064.338.1.5l-.193.514a.794.794,0,0,0-.08.257c-.016,1.077-.048,2.17-.08,3.167a6.358,6.358,0,0,0,.241.595.573.573,0,0,1-.064.723,1.165,1.165,0,0,1-.675.4Z" transform="translate(22.629 32.82)"/><path class="c" d="M2.84,5.906a.815.815,0,0,0-.482.611,21.52,21.52,0,0,1-.1,2.684.3.3,0,0,1-.386.257l-.241-.1a2.6,2.6,0,0,1-.739-.772L.815,8.35A7.6,7.6,0,0,0,1.1,7.015,2.559,2.559,0,0,0,.831,5.2a.467.467,0,0,1,.129-.707,1.506,1.506,0,0,0,.8-1.318L1.8,2.9A.634.634,0,0,1,2,2.418a.527.527,0,0,1,.209.418,6.7,6.7,0,0,1,0,.8,1.77,1.77,0,0,0,.273,1.029,2.044,2.044,0,0,1,.305,1.286Z" transform="translate(10.936 36.447)"/><path class="c" d="M3.2,2.932l.338.723a1.676,1.676,0,0,1,.145.788.688.688,0,0,1-.434.627c-.273.1-.53.161-.772.257a.642.642,0,0,0-.321.418,13.775,13.775,0,0,0-.113,1.624c-.032.08-.1.193-.161.209-.113.032-.273-.1-.289-.305-.016-.45,0-.916,0-1.366a2.867,2.867,0,0,0-.466-1.8.849.849,0,0,1-.016-.788.477.477,0,0,1,.113-.241c.177-.305.37-.611.563-.932.4.161.177.563.305.836.1.193.209.305.386.257.257-.064.482-.257.772-.257Z" transform="translate(15.443 32.317)"/><path class="c" d="M.883,2.683c.209,0,.4,0,.611.016L1.43,2.635c.032.547.064,1.077.08,1.64a.347.347,0,0,0,.145.225c.113.08.241-.016.434-.129A5.5,5.5,0,0,0,2.8,3.583l.145-.016a2.011,2.011,0,0,1,.129.514c.113.82-.08,1.624,0,2.443l.064-.08-.5.209c-.37.177-.386.193-.627-.145-.129-.145-.225-.289-.37-.273l-.1.241c-.08.434.048.9-.241,1.286l-.177.145C1.076,7.843.98,7.763.964,7.682a1.858,1.858,0,0,1-.113-.5c.032-1.511.064-3.038.08-4.549Z" transform="translate(12.829 39.719)"/><path class="c" d="M5.947,6.664c.016-.193-.064-.4-.241-.4-.161.016-.241.225-.257.418a1.249,1.249,0,0,1-.675-.386A.618.618,0,0,0,4.308,6.1,2.615,2.615,0,0,0,4.276,5.04c-.1-.338-.241-.675-.354-1.029-.1-.257.016-.482.37-.563.321-.064.595-.482.964-.241.193.129.305.418.466.627l.321.434a.576.576,0,0,0,.482.161L6.3,4.912a.913.913,0,0,0,.016.739,2.22,2.22,0,0,1,.225,1.013Z" transform="translate(58.625 47.232)"/><path class="c" d="M2.506,2.172c.434.193.627.45.547.788a.752.752,0,0,1-.032.273,11.525,11.525,0,0,0-.514,1.8L1.992,6.062c-.032.659-.016,1.366-.08,2.09s.145,1.431.032,2.154a.391.391,0,0,1-.161.209c-.129.064-.257-.016-.338-.241L1.4,10.017c.193-1.7-.032-3.424.145-5.1a8,8,0,0,1,.884-1.993l.129-.8Z" transform="translate(21.059 32.016)"/><path class="c" d="M.664,5.856a.721.721,0,0,1,.145-.514c.289-.354.595-.675.868-1l.145-.852L2.5,2.336a.441.441,0,0,1,.482-.225.429.429,0,0,1,.338.338,3.329,3.329,0,0,1-.048.8.774.774,0,0,1-.129.257,5.864,5.864,0,0,1-.836,1.4,3.251,3.251,0,0,0-.547.948c-.032.354-.064.707-.113,1.061a.3.3,0,0,1-.129.241c-.113.064-.225-.064-.273-.273a5.114,5.114,0,0,0-.064-.547.782.782,0,0,0-.563-.53Z" transform="translate(9.286 31.627)"/><path class="c" d="M2.334,2.247a.681.681,0,0,1,.193.482L2.478,5.687a.515.515,0,0,1-.466.53H1.466a.635.635,0,0,1-.547-.5L.887,5.462c.048-.8.08-1.607.145-2.411,0-.08.1-.225.129-.209.145.016.225.145.257.354a8.565,8.565,0,0,0,.129,1.575.721.721,0,0,0,.177.209L1.9,4.819A.509.509,0,0,0,2,4.578c.016-.627.048-1.254.08-1.881a.626.626,0,0,1,.257-.45" transform="translate(13.371 33.87)"/><path class="c" d="M2.539,4.136c-.129.241-.273.466-.418.756a24.667,24.667,0,0,0-.1,2.91,3.851,3.851,0,0,1-.064,1.045.382.382,0,0,1-.4.305c-.225,0-.338-.1-.305-.273a.989.989,0,0,0-.016-.772.959.959,0,0,1,.016-1.013l.113-.241.08-.289a31.869,31.869,0,0,0,.145-3.729.411.411,0,0,1,.241-.386.469.469,0,0,1,.241.45,1.747,1.747,0,0,0,.354,1l.113.241" transform="translate(16.589 36.9)"/><path class="c" d="M2.871,2.227c-.016.257-.048.53-.08.788a4.477,4.477,0,0,0-.547,2.315l-.032.289c-.113.321-.241.643-.354.981a1.2,1.2,0,0,0,.032.788c.08.257.241.482.338.723a.384.384,0,0,1-.161.466c-.289.273-.45.225-.8-.305.032-.611.048-1.238.08-1.849a1.959,1.959,0,0,1,.193-.788,1.845,1.845,0,0,0,.273-1.013c-.016-.257-.048-.53-.048-.788,0-.37.048-.723.08-1.077l-.064.064a1.333,1.333,0,0,0,.675-.37.586.586,0,0,1,.482-.177Z" transform="translate(19.054 33.568)"/><path class="c" d="M6.208,7.146a.676.676,0,0,1-.45-.225c-.241-.241-.5-.5-.739-.723a.679.679,0,0,0-.5-.177,1.652,1.652,0,0,0-.209-1A2.509,2.509,0,0,1,4.037,3.5a.516.516,0,0,1,.193-.45c.129-.064.305.048.418.193a1.463,1.463,0,0,1,.289.434c.08.241.08.514.177.756a.639.639,0,0,0,.547.466,3.475,3.475,0,0,0,.418,1.495,2.256,2.256,0,0,1,.129.756" transform="translate(60.615 45.656)"/><path class="c" d="M2.1,3.554l.1.257A2.319,2.319,0,0,1,2.55,4.824c.016.82.048,1.64.048,2.443a.339.339,0,0,1-.289.354.445.445,0,0,1-.257-.08,1.151,1.151,0,0,1-.482-.932c.016-.8.016-1.64.064-2.443a.665.665,0,0,1,.53-.563Z" transform="translate(23.652 53.572)"/><path class="c" d="M1.82,4.9A18.412,18.412,0,0,1,1.852,2.8a.619.619,0,0,1,.305-.418c.289.145.611.289.916.45.08.032.113.129.145.209a1.33,1.33,0,0,1-.45,1.64l-.257.161H1.772Z" transform="translate(26.712 35.875)"/><path class="c" d="M5.4,4.165a5.863,5.863,0,0,1-.547,1.7.842.842,0,0,1-.547-.418l-.225-.418a.586.586,0,0,0-.37-.273c.016-.354.048-.723.1-1.077a.477.477,0,0,1,.113-.241c.113-.08.257-.032.37.161A.976.976,0,0,0,5.4,4.165" transform="translate(55.942 51.321)"/><path class="c" d="M4.645,5.972a.66.66,0,0,1-.466-.209,1.836,1.836,0,0,1-.595-1.4A2.753,2.753,0,0,1,3.6,3.851c.048-.225.145-.321.257-.257A.439.439,0,0,1,4,3.786a2.817,2.817,0,0,0,.354,1.238A1.687,1.687,0,0,1,4.58,6.037Z" transform="translate(53.964 53.871)"/><path class="c" d="M2.021,3.022A11.745,11.745,0,0,1,2.15,5.514c-.016.145-.193.273-.289.418a.626.626,0,0,1-.257-.45A11.7,11.7,0,0,1,1.78,3.36c.016-.08.1-.145.241-.338" transform="translate(24.165 45.553)"/><path class="c" d="M1.551,3.707l-.032.338c-.016.177-.064.386-.225.434-.161.064-.338-.064-.45-.193a.543.543,0,0,1-.209-.45,1.967,1.967,0,0,1,.45-.916c.064-.08.161-.145.209-.129a.313.313,0,0,1,.145.225,6.8,6.8,0,0,1,.113.691" transform="translate(9.492 42.023)"/><path class="c" d="M2.443,3.689c-.016.675-.016,1.366-.016,2.041a.849.849,0,0,1-.579.756,15.781,15.781,0,0,1,.08-2.3A.579.579,0,0,1,2.2,3.8l.241-.113" transform="translate(27.729 55.607)"/><path class="c" d="M3.582,6.356c-.37-.177-.514-.305-.514-.514-.016-.53-.032-1.061-.032-1.591a.357.357,0,0,1,.145-.209c.1-.064.241.016.273.257A8.381,8.381,0,0,1,3.517,6.4Z" transform="translate(45.752 60.592)"/><path class="c" d="M1.716,2.124c0,.273.016.547,0,.82a1.02,1.02,0,0,1-.338.707.294.294,0,0,1-.466-.032l-.08-.193a7.594,7.594,0,0,1,.691-1.157l.257-.1Z" transform="translate(12.542 32.016)"/><path class="c" d="M2.539,2.8a5.505,5.505,0,0,1-.675.37,2.324,2.324,0,0,1-.466.177l.048.048.032-.53a1.1,1.1,0,0,1,.4-.659c.257-.209.514-.161.563.129a2.661,2.661,0,0,1,.048.514Z" transform="translate(21.074 31.337)"/><path class="c" d="M1.888,3.572c-.209,0-.418,0-.627-.016l.08.064a3.294,3.294,0,0,1,.1-1.254l.145-.193c.048.064.129.129.145.193q.072.651.1,1.254Z" transform="translate(19.009 32.769)"/><path class="c" d="M1.706,2.26c-.016.418.161.836-.016,1.238a.409.409,0,0,1-.193.177l-.161-.113a.4.4,0,0,1-.1-.225.929.929,0,0,1,.53-1.029Z" transform="translate(18.564 34.066)"/><path class="c" d="M3.576,3.889c.338.032.691.048,1.029.08.241.048.321.161.241.257a.4.4,0,0,1-.225.129,2.75,2.75,0,0,1-.514,0c-.241-.048-.321-.161-.466-.53Z" transform="translate(53.907 57.658)"/><path class="c" d="M4.1,5.329a.612.612,0,0,1-.563-.659c-.016-.321.016-.643.016-.981l-.048.064c.338.145.466.273.514.547a3.447,3.447,0,0,1,.032,1.077Z" transform="translate(52.867 55.607)"/><path class="c" d="M1.514,2.907c-.209.016-.418.016-.627.016l.064.048.032-.466a.565.565,0,0,1,.209-.434.505.505,0,0,1,.225.418c0,.161.032.321.032.482Z" transform="translate(13.371 31.217)"/><path class="c" d="M1.019,2.973c.016-.241.032-.482.064-.723.016-.064.129-.193.161-.177a.313.313,0,0,1,.193.386c-.064.257-.129.321-.482.466Z" transform="translate(14.396 31.23)"/><path class="c" d="M1.468,2.139l.016.53a.554.554,0,0,1-.257.45.606.606,0,0,1-.241-.45V2.123l-.064.064h.611Z" transform="translate(13.884 32)"/><path class="c" d="M1.911,2.158v.466a.63.63,0,0,1-.547.643l.064.048a4.2,4.2,0,0,1,0-.45.672.672,0,0,1,.53-.659Z" transform="translate(20.562 32.528)"/><path class="c" d="M3.659,5.275a.516.516,0,0,1-.482-.418,3.335,3.335,0,0,1-.048-.691l-.064.048A.463.463,0,0,1,3.5,4.5a2.205,2.205,0,0,1,.145.788Z" transform="translate(46.189 62.798)"/><path class="c" d="M1.191,2.736,1,2.929C.949,2.864.853,2.816.837,2.752a.469.469,0,0,1,.016-.257q.193-.362.338,0a1.206,1.206,0,0,1,0,.241" transform="translate(12.457 34.876)"/><path class="c" d="M3.231,3.86a1.213,1.213,0,0,1-.1.756l-.161.177C2.91,4.728,2.829,4.68,2.8,4.6c-.113-.354.064-.595.482-.707Z" transform="translate(41.666 58.185)"/><path class="c" d="M.867,2.48a.346.346,0,0,1,.145.45C1,3.01.867,3.123.835,3.107a.327.327,0,0,1-.145-.45A.617.617,0,0,1,.867,2.48" transform="translate(9.839 37.382)"/><path class="c" d="M1.68,2.547a.38.38,0,0,1,.129.482.594.594,0,0,1-.161.177A.4.4,0,0,1,1.5,2.724a.617.617,0,0,1,.177-.177" transform="translate(22.24 38.392)"/><path class="c" d="M.936,3.393c0-.177,0-.354.016-.53a.361.361,0,0,1,.1-.225l.161-.048a.413.413,0,0,1,.08.466.436.436,0,0,1-.4.289Z" transform="translate(13.386 39.025)"/><path class="c" d="M2.279,3.4a.436.436,0,0,1-.4-.289.343.343,0,0,1,.048-.45l.161.048.1.225a2.852,2.852,0,0,1,.032.514Z" transform="translate(27.363 40.05)"/><path class="c" d="M1.84,2.751a.5.5,0,0,1,.418.305.35.35,0,0,1-.08.466l-.161-.048A.429.429,0,0,1,1.9,3.25c-.016-.177,0-.37,0-.547Z" transform="translate(27.737 40.744)"/><path class="c" d="M1.666,4.362a3.061,3.061,0,0,1,.016-.547c.016-.209.113-.338.241-.305.064.032.1.145.113.209l-.048.273a.432.432,0,0,1-.386.321Z" transform="translate(24.15 52.829)"/><path class="c" d="M1.857,2.887a.382.382,0,0,1,.129.466.526.526,0,0,1-.145.193.36.36,0,0,1-.161-.482c.032-.064.129-.129.177-.177" transform="translate(24.763 43.518)"/><path class="c" d="M1.223,2.5c.016-.209.08-.321.209-.321l-.048.161-.225.113Z" transform="translate(17.472 32.814)"/><path class="c" d="M4.167,4.338A.546.546,0,0,1,3.6,3.791l-.064.048c.338.032.466.289.563.563Z" transform="translate(53.364 57.145)"/><path class="c" d="M1.124,2.705H.513c.289-.482.289-.482.611,0" transform="translate(7.733 35.324)"/><path class="c" d="M.63,2.94c.032-.338.177-.547.547-.547l-.064-.064c-.032.321-.177.547-.53.547Z" transform="translate(8.773 35.106)"/><path class="c" d="M.547,2.974V2.363c.209.016.4.032.611.064L1.11,2.363a.638.638,0,0,1-.563.611" transform="translate(8.246 35.618)"/><path class="c" d="M4.254,4.286a.559.559,0,0,1-.563-.563l-.048.064a.556.556,0,0,1,.563.547Z" transform="translate(54.917 56.12)"/><path class="c" d="M1.9,2.58l.048.145-.129-.032Z" transform="translate(27.459 38.884)"/><path class="c" d="M3.521,4.04c.032-.177.113-.354.273-.37.161,0,.241.177.225.37l.048-.048-.595-.032Z" transform="translate(52.354 55.321)"/><path class="c" d="M.793,2.68l.08.177L.7,2.824Z" transform="translate(10.5 40.393)"/><path class="c" d="M1.394,3.7l-.048-.161.129.016Z" transform="translate(20.291 53.284)"/><path class="c" d="M9.816,12.506a1.481,1.481,0,0,1-.691-.386,1.241,1.241,0,0,0-1.27-.064c-.257.113-.466.321-.707.418a.878.878,0,0,0-.547.547,2.841,2.841,0,0,0-.129.53A2.064,2.064,0,0,1,5.347,15l-.5.241a6.122,6.122,0,0,0-.305-1.865c.1-.45.225-.884.273-1.318a.774.774,0,0,1,.434-.643,3.919,3.919,0,0,0,1.318-.932,1.137,1.137,0,0,0,.321-1,.648.648,0,0,0-.273-.466c-.241-.209-.466-.193-.595.113-.08.193-.145.37-.354.37a.3.3,0,0,1-.273-.338A31.484,31.484,0,0,1,5.475,5.9a.372.372,0,0,1,.161-.225q.145-.1.338.241c.016.338.016.707.064,1.061.032.225.161.338.257.273a.27.27,0,0,0,.145-.209c.048-.37.032-.739.1-1.093A.754.754,0,0,1,7.083,5.4l-.064-.064c.016.82,0,1.624.032,2.443a3.391,3.391,0,0,0,.193.772.575.575,0,0,0,.868.177A1.766,1.766,0,0,1,8.256,8.5c.257-.257.563-.45.788-.723a5.5,5.5,0,0,0,.53-.948c-.193-.289-.4-.354-.563-.161-.113.129-.193.305-.321.434-.145.161-.289.209-.418.113a.382.382,0,0,1-.145-.209,2.079,2.079,0,0,1-.064-.53c.048-.547.1-1.077.161-1.624.016-.225.145-.37.514-.547l-.08-.064c.032.354.032.707.064,1.077a.738.738,0,0,0,.241.45A.735.735,0,0,0,9.2,5.3c.032-.354.048-.707.064-1.061l-.048.064A.632.632,0,0,0,9.639,4a1.469,1.469,0,0,1,.659-.8,1.28,1.28,0,0,0,.595-.5c.1-.193.241-.289.354-.225.064.016.113.145.113.225.048.707.064,1.431.113,2.138a1.465,1.465,0,0,0-.884.579.647.647,0,0,0-.161.5.409.409,0,0,0,.338.354.326.326,0,0,0,.273-.016.838.838,0,0,0,.386-.659,6.856,6.856,0,0,0-.032-.8.51.51,0,0,0,.386-.354L12.018,3.1c.064-.273.354-.321.627-.08a.855.855,0,0,1,.338.418,7.72,7.72,0,0,0,.579,1.784.4.4,0,0,1-.016.273,1.981,1.981,0,0,1-.225.5,2.142,2.142,0,0,0-.273,1.029l.064-.048c-.177.016-.37.032-.547.064l-.5.177a.674.674,0,0,0-.225.145,4.193,4.193,0,0,1-.37.386c-.273.225-.563.418-.836.643a.8.8,0,0,0-.177.273l-.1,1.286.048.273A11.136,11.136,0,0,0,11.825,13.1a.489.489,0,0,1-.016.707,2.633,2.633,0,0,1-.4.338.757.757,0,0,0-.064-.257l-.177-.08q-.048.217.289.289a.722.722,0,0,1-.9.563,1.209,1.209,0,0,0-.241,0l.048.048-.064-.482a.776.776,0,0,0-.53-.691L9.8,13.6a5.585,5.585,0,0,1-.048-1.157h.611c.048.193.129.305.225.321l-.064-.161-.225-.1a6.192,6.192,0,0,0-.129-.788.389.389,0,0,0-.4-.305c.032-.209-.016-.354-.225-.4l-.129.161c.064.193.209.241.418.193,0,.386,0,.772-.016,1.141" transform="translate(68.484 37.017)"/><path class="c" d="M6.78,4.733a2.644,2.644,0,0,0-.643-1.077c-.241-.241-.482-.45-.707-.707A1.478,1.478,0,0,1,5.2,2.5l-.064.048a1.493,1.493,0,0,1,1.222.418,8.4,8.4,0,0,1,.788.723A25.443,25.443,0,0,0,9.255,5.746a.361.361,0,0,1-.113.627.964.964,0,0,0-.739.964l-.048.273-.273.45a.826.826,0,0,1-.675.386,1.083,1.083,0,0,1-1.141-.482c-.129-.241-.289-.466-.4-.707a2.915,2.915,0,0,1-.177-1.575.509.509,0,0,1,.1-.241,1.66,1.66,0,0,1,1.045-.756.331.331,0,0,0,.225.418l.161-.161a.334.334,0,0,0-.434-.209" transform="translate(77.484 37.669)"/><path class="c" d="M5.747,7.744a2.264,2.264,0,0,0-.161-.5A7.127,7.127,0,0,1,4.7,5.59a.476.476,0,0,1,.1-.5,2.517,2.517,0,0,1,.627-.482c.225-.129.53-.145.675-.418.161-.225.113-.5.177-.756.1-.321.338-.418.579-.273l.659.482.45.289L7.917,3.87c.032.177.064.354.113.53a.945.945,0,0,0,.482.627l-.048-.048c.1.145.161.305.273.45.305.418.273.53-.113.852a2.284,2.284,0,0,1-.691.386,1.079,1.079,0,0,0-.1-.241l-.177-.048c-.016.145.1.225.321.225-.08.257-.129.53-.193.772a1.455,1.455,0,0,1-1.238.434l-.8-.064" transform="translate(70.335 46.682)"/><path class="c" d="M6.14,2.806A5.935,5.935,0,0,1,6.2,4.655,1.4,1.4,0,0,1,5.16,6.021a.69.69,0,0,1-.257,0,.756.756,0,0,1-.466-.563A3.345,3.345,0,0,1,4.5,4.4a1.173,1.173,0,0,1,.241-.466c.37-.354.788-.707,1.19-1.029.064-.064.177-.048.257-.048Z" transform="translate(66.646 42.296)"/><path class="c" d="M6.846,4.471a2.3,2.3,0,0,0,.305,1.3c-.305.321-.643.273-.82-.08a6,6,0,0,1-.482-.964,4.066,4.066,0,0,0-.82-1.4c-.129-.161-.1-.305.129-.418l.257.016c.338.145.563.482.948.514L6.3,3.362a5.228,5.228,0,0,0,.1.723.623.623,0,0,0,.5.45Z" transform="translate(74.685 43.894)"/><path class="c" d="M5.072,2.785a.629.629,0,0,1,.418.338,9.077,9.077,0,0,1,.5.964,4.747,4.747,0,0,0,.884,1.366c.161.161.209.305.064.434a.567.567,0,0,1-.482.145H6.181l.048.048a.772.772,0,0,0-.611-.611l.048.064a2.047,2.047,0,0,0-.241-1.013,2.132,2.132,0,0,1-.289-1.254c.016-.177,0-.354,0-.53Z" transform="translate(76.459 41.256)"/><path class="c" d="M6.694,3.786a2.6,2.6,0,0,0-.032.5c0,.273,0,.273-.338.595H5.568l.08.064-.032-.5a.678.678,0,0,0-.579-.675l.048.064a2.6,2.6,0,0,1,.032-.5c0-.45.1-.53.386-.386a2.05,2.05,0,0,0,.675.338L6.115,3.24a.734.734,0,0,0,.611.595Z" transform="translate(75.946 43.486)"/><path class="c" d="M6.136,3.729a1.61,1.61,0,0,1-1-.8.337.337,0,0,1,.08-.466c.113-.1.273-.016.4.145a1.238,1.238,0,0,1,.45,1.173Z" transform="translate(76.536 36.439)"/><path class="c" d="M4.832,3.1c.016-.177,0-.338.032-.514a.44.44,0,0,1,.257-.4c.048-.032.161.048.225.113a1.2,1.2,0,0,1,.514.852c.016.177.016.338.016.514l.048-.048H5.347l.048.064A.775.775,0,0,0,4.8,3.063Z" transform="translate(72.359 32.732)"/><path class="c" d="M5.772,2.774c0,.161,0,.321-.016.5a.4.4,0,0,1-.257.386L5.29,3.529a2.422,2.422,0,0,1-.338-.37c-.321-.354-.209-.868.305-.9l-.032-.032a.951.951,0,0,0,.595.595Z" transform="translate(71.933 33.568)"/><path class="c" d="M4.88,2.542a.418.418,0,0,1,.338.289.466.466,0,0,1,0,.257c-.08.241-.193.257-.386.1-.305-.273-.37-.466-.177-.579a.523.523,0,0,1,.225-.064" transform="translate(68.518 38.317)"/><path class="c" d="M4.761,3.172c.016-.177.016-.354.048-.547.048-.321.273-.4.53-.209.145.113.305.241.289.434a.412.412,0,0,1-.4.273H4.7Z" transform="translate(70.806 34.858)"/><path class="c" d="M5.163,2.362l.016.739a.411.411,0,0,1-.161.209c-.113.08-.241.016-.321-.177a.256.256,0,0,1,0-.241.794.794,0,0,1,.53-.482Z" transform="translate(70.34 35.603)"/><path class="c" d="M4.858,3.064A.3.3,0,0,1,4.6,2.743a.339.339,0,0,1,.08-.209c.129-.145.241-.1.305.113A.315.315,0,0,1,5,2.888c-.016.08-.1.129-.145.177" transform="translate(69.359 36.942)"/><path class="c" d="M4.864,3.49c-.016-.177-.016-.354-.016-.53a.626.626,0,0,1,.257-.45.606.606,0,0,1,.241.45v.547l.064-.064H4.8Z" transform="translate(72.359 37.819)"/><path class="c" d="M4.576,3.548l.032-.53a.559.559,0,0,1,.113-.241L4.9,2.76a.344.344,0,0,1,.064.466.515.515,0,0,1-.434.273Z" transform="translate(68.258 41.603)"/><path class="c" d="M4.867,2.309a.359.359,0,0,1,.418.177l-.145.161a.377.377,0,0,1-.225-.386Z" transform="translate(73.369 34.081)"/><path class="c" d="M4.761,2.942c.032-.241.113-.338.257-.321l-.064.193a.606.606,0,0,1-.257.064Z" transform="translate(70.806 39.476)"/><path class="c" d="M7.968.492l.048.595a2.731,2.731,0,0,0-1.141,0A.709.709,0,0,1,7.566.572L8.032.54Z" transform="translate(103.639 7.414)"/><path class="c" d="M7.281.73a.733.733,0,0,1-.611.611A1,1,0,0,1,7.281.73" transform="translate(100.548 11.001)"/><path class="c" d="M7.247.764a.716.716,0,0,1-.611.611c.048-.37.305-.514.611-.611" transform="translate(100.036 11.514)"/><path class="c" d="M6.431,1.56c-.209-.016-.4-.016-.611-.016A1.162,1.162,0,0,1,6.415.933l.016.627" transform="translate(87.735 14.062)"/><path class="c" d="M6.4,1.579H5.786A.716.716,0,0,1,6.381.968c.016.209.016.4.016.611" transform="translate(87.222 14.589)"/><path class="c" d="M6.362,1.613H5.751A.67.67,0,0,1,6.362,1Z" transform="translate(86.695 15.102)"/><path class="c" d="M6.313,1.647H5.718a.657.657,0,0,1,.611-.611l-.016.611" transform="translate(86.197 15.614)"/><path class="c" d="M1.354,9.645c-.386-.177-.53-.321-.53-.514V6.7A1.754,1.754,0,0,1,1,5.916a2.66,2.66,0,0,0,.321-1.27,3.321,3.321,0,0,1,.145-1.061l.161-.145a.806.806,0,0,1,.129.225L1.9,5.3l.289.723a1.974,1.974,0,0,1-.563.53.9.9,0,0,0-.257.45,6.64,6.64,0,0,0-.016.8,10.51,10.51,0,0,1-.048,1.881Z" transform="translate(12.422 51.854)"/><path class="c" d="M1.662,5.482c.032,1.415.064,2.234.048,3.038a.361.361,0,0,1-.305.338l-.161-.193a.433.433,0,0,1-.08-.241A27.2,27.2,0,0,1,1.308,3.57l.129-.129c.048.08.145.145.161.225.032.8.064,1.607.064,1.816" transform="translate(16.969 51.869)"/><path class="c" d="M7.911.937H6.738C6.931.6,7.06.487,7.317.5c.273,0,.4.1.595.434" transform="translate(101.573 7.563)"/><path class="c" d="M7.007.858A.315.315,0,0,1,7.216.472L7.361.6A.618.618,0,0,1,6.943.81Z" transform="translate(104.664 7.112)"/><path class="c" d="M6.705,2.125V1.515c.338-.032.563-.177.563-.547a.8.8,0,0,1,.37.321.485.485,0,0,1-.177.659,1.912,1.912,0,0,1-.756.177" transform="translate(101.076 14.589)"/><path class="c" d="M6.959.814C7.329.8,7.715.8,8.1.8a.906.906,0,0,1-.932.547l-.225-.016.048.048c0-.193-.016-.37-.032-.563" transform="translate(104.664 12.026)"/><path class="c" d="M7.045,1.34A.752.752,0,0,1,7.656.729a.752.752,0,0,1-.611.611" transform="translate(106.201 10.986)"/><path class="c" d="M7.011,1.375c.048-.354.305-.5.611-.611a.9.9,0,0,1-.611.611" transform="translate(105.689 11.514)"/><path class="c" d="M7.44.831a.575.575,0,0,1-.53.563l.048.048A.748.748,0,0,1,7.5.879Z" transform="translate(104.166 12.524)"/><path class="c" d="M6.939,1.476A.666.666,0,0,1,7.486.929L7.422.865a.632.632,0,0,1-.547.563Z" transform="translate(103.639 13.036)"/><path class="c" d="M6.89,1.495A.6.6,0,0,1,7.453.948L7.389.9a.706.706,0,0,1-.547.547Z" transform="translate(103.141 13.564)"/><path class="c" d="M7.173.934a.457.457,0,0,1-.241.37l-.113-.129a.564.564,0,0,1,.4-.193Z" transform="translate(102.794 14.077)"/><path class="c" d="M6.671,1.662V1.035h.611a.635.635,0,0,1-.611.627" transform="translate(100.563 15.599)"/><path class="c" d="M.618,3.75a.4.4,0,0,1-.177-.482C.473,3.2.6,3.075.618,3.091a.374.374,0,0,1,.177.466c-.032.08-.129.129-.177.193" transform="translate(6.278 46.576)"/><path class="c" d="M4.067,3.944c0-.193,0-.4-.016-.595a.644.644,0,0,1,.611.611c-.209-.016-.4-.016-.595-.016" transform="translate(61.068 50.482)"/><path class="c" d="M2.3,2.757c.032-.225.1-.321.241-.305l-.064.177-.225.08Z" transform="translate(33.888 36.928)"/><path class="c" d="M5.872,3.332a.7.7,0,0,0-.563-.547c.161-.37.305-.5.53-.482a.537.537,0,0,1,.434.273A.806.806,0,0,1,6.4,2.8l.08.547c-.209,0-.4,0-.611-.016" transform="translate(80.032 34.698)"/><path class="c" d="M6.536,2.429a3.187,3.187,0,0,0,.048.563l-.241-.016A1.119,1.119,0,0,1,5.411,2.4a3.791,3.791,0,0,0,1.125.032" transform="translate(81.569 36.131)"/><path class="c" d="M5.988,2.973a.733.733,0,0,1-.611-.611.611.611,0,0,1,.611.611" transform="translate(81.057 35.603)"/><path class="c" d="M3.779,3.553a.7.7,0,0,1,.611.611.621.621,0,0,1-.611-.611" transform="translate(56.967 53.557)"/><path class="c" d="M6.09,2.431v.611a.772.772,0,0,1-.611-.611Z" transform="translate(82.594 36.643)"/><path class="c" d="M5.854,1.579V.968h.611a.657.657,0,0,1-.611.611" transform="translate(88.247 14.589)"/><path class="c" d="M6.5,1.647H5.888A.644.644,0,0,1,6.5,1.036v.611" transform="translate(88.76 15.614)"/><path class="c" d="M6.465,1.681c-.209,0-.4,0-.611-.016V1.07h.611Z" transform="translate(88.247 16.127)"/><path class="c" d="M6.33,2.1V1.478c.209.016.4.016.611.016-.145.273-.273.547-.611.611" transform="translate(95.423 22.277)"/><path class="c" d="M6.567,1.443H5.956c0-.209,0-.4.016-.611h.611c-.016.209-.016.4-.016.611" transform="translate(89.785 12.539)"/><path class="c" d="M6.975,1.715H6.364V1.1h.611Z" transform="translate(95.936 16.639)"/><path class="c" d="M6.957,1.749c-.209-.016-.4-.016-.611-.016,0-.193,0-.386-.016-.595h.595a3.994,3.994,0,0,1,.032.611" transform="translate(95.423 17.152)"/></g></g></svg>