<svg xmlns="http://www.w3.org/2000/svg" xmlns:xlink="http://www.w3.org/1999/xlink" width="579.011" height="102.223" viewBox="0 0 579.011 102.223"><defs><style>.a{fill:#efd7c4;}.b{clip-path:url(#a);}</style><clipPath id="a"><rect class="a" width="579.011" height="102.223" transform="translate(0 0)"/></clipPath></defs><g class="b" transform="translate(0 0)"><path class="a" d="M309.1,56.054h-2.687a26.588,26.588,0,0,1,1.118-7.655c3-10.118,11-16.669,17.875-14.624s10.013,11.889,7.013,22c-.018.055-.04.105-.051.154-.328-5.878-3.033-10.624-7.4-11.919-5.968-1.771-12.861,3.568-15.873,12.043" transform="translate(-10.493 -1.144)"/><path class="a" d="M308.02,61.015a14.21,14.21,0,0,0,8.063,6.361,4.324,4.324,0,1,1,4.133,5.576,14.219,14.219,0,0,1-14.028-11.938Z" transform="translate(-10.486 -2.089)"/><path class="a" d="M299.424,55.222h-2.775s-6.926-16.182-6.926-26.58,7.164-22.306,9.7-24.846c2.544,2.54,9.708,14.448,9.708,24.846s-6.933,26.58-6.933,26.58Z" transform="translate(-9.922 -0.13)"/><path class="a" d="M296.953,61.015H302s-1.1,5.654,5.823,12.578c0,0-1.615,6.686-8.349,6.686s-8.344-6.686-8.344-6.686c6.924-6.924,5.826-12.578,5.826-12.578" transform="translate(-9.97 -2.089)"/><path class="a" d="M273.17,33.775c6.868-2.044,14.874,4.506,17.871,14.624a26.614,26.614,0,0,1,1.124,7.655h-2.693c-3.005-8.475-9.9-13.813-15.869-12.042-4.361,1.294-7.068,6.041-7.4,11.918-.016-.047-.036-.1-.051-.154-3-10.111.139-19.964,7.014-22" transform="translate(-9.076 -1.144)"/><path class="a" d="M278.675,64.286a4.326,4.326,0,0,1,4.136,3.09,14.222,14.222,0,0,0,8.06-6.361h1.83a14.223,14.223,0,0,1-14.026,11.939,4.334,4.334,0,0,1,0-8.668" transform="translate(-9.395 -2.089)"/><path class="a" d="M222.838,99.92c-13.471-4.187-24.911-11.769-35.595-18.431-10.767-6.6-21.655-11.712-32.293-14.1-21.545-5.321-39.918,3.153-47.825,11.84,7.471-9.048,26.043-18.23,48.1-13.106,10.866,2.278,21.985,7.372,32.872,13.943,10.822,6.653,22.087,14.042,35.272,18.143,6.524,1.992,13.323,3.093,19.724,1.957,6.564-.757,11.387-5.747,13.591-11.456,4.845-11.706-.809-24.7-9.879-30.414-18.777-11.436-38.936-8.376-49.464-3.934a55,55,0,0,1,50.194,2.865c9.533,5.781,15.806,19.568,10.7,32.094-2.2,6.061-7.743,11.764-14.817,12.575-6.828,1.227-13.883.063-20.577-1.975" transform="translate(-3.669 -1.7)"/><path class="a" d="M262.212,75.817s.659-11.465-5.956-26.475-8.077-24.234.382-27.347c0,0-15.4-2.8-16.026,16.407a19.168,19.168,0,0,0-13.234-5.342c-8.267,0-17.679,6.613-28.744,6.613,0,0,65.678,1.34,63.577,36.143" transform="translate(-6.802 -0.748)"/><path class="a" d="M194.906,30.008c-1.566-.057-3.839-.715-4.974,1.332-3.744,7.074,9.172,8.4,9.15,8.424,0-.034-7.1,1.43-10.812-2.712a7.888,7.888,0,0,1-1.149-6.741c.961-4.133,5.606-5.909,7.782-5.831l.366-.014c1.9-.037,5.075.928,4.612,2.467-.937,3.645-4.976,3.076-4.976,3.076" transform="translate(-6.399 -0.838)"/><path class="a" d="M179,22.871c-.48-2.738-1.133-7.226-5.482-8.162-2.662-.5-6.116-.045-8.18,1.942-2.147,1.978-3.018,5.057-3.191,7.659a29.417,29.417,0,0,0,.768,9.025,30.62,30.62,0,0,1-1.656-9.055,12.972,12.972,0,0,1,2.761-8.914c2.424-2.785,6.3-3.818,9.92-3.623,6.352.331,9.884,6.633,10.467,9.976,0,0,1.653,7.367-1.186,8.425C179.718,31.282,179,22.871,179,22.871" transform="translate(-5.522 -0.401)"/><path class="a" d="M198.127,81.234s-2.707-16.3,6.042-23.779,25.4-8.438,34.748-5.162c0,0-10.672-6.033-27.713-4.747s-40.424,5.848-48.549-14.565c0,0-.492,12.981,16.944,20.114,0,0-6.738,4.161-5.154,13.772,0,0,9.412,1.485,15.162-4.26,0,0-3.37,13.376,8.521,18.627" transform="translate(-5.57 -1.129)"/><path class="a" d="M293.793,101.22s-4.837-11.378-12.332-11.378-17.541,8.816-24.368,11.946-20.659,5.972-35.316-3.746c0,0,18.34,7.446,31.144-2.321,0,0,8.627-6.734,2.937-12.422,0,0-3.127-3.226-10.525,0s-20.767,5.405-23.139-8.439c0,0,6.352,5.12,11,5.12s14.7-9.577,24.467-5.5a12.963,12.963,0,0,1,6.448,13.183s6.827-6.356,15.172-6.356,15.269,5.309,14.51,19.913" transform="translate(-7.595 -2.516)"/><path class="a" d="M135.025,88.3a7.7,7.7,0,0,0-5.368,4.215,8.293,8.293,0,0,1-12.1,2.787c-4.55-3.331-5.639-14.273,5.1-21.067s18-4.062,18-4.062a22.983,22.983,0,0,0-18.411,7.393S117.224,83,121.709,88.1c0,0,2.173,2.378,4.754.679s5.029-2.651,8.561-.478" transform="translate(-3.913 -2.384)"/><path class="a" d="M56.831,17.512s-9.025-.282-22.142,4.513S7.335,31.894,0,19.342c0,0,5.926,19.6,32.012,15.088,0,0-6.062,16.5,9.024,29.759,0,0-18.052-36.666,15.795-46.677M147.08,66.585c.029,0-.011.006-.106.013.1,0,.135-.007.106-.013M118.352,53.71A98.386,98.386,0,0,1,110.087,44a56.151,56.151,0,0,1-3.043-6.139c-3.215-6.92-5.14-19.035.091-25.053,7.121-7.119,7.541,7.494,10.227,8.729,2.351,1.534,10.618-2.507,8.844-12.427-2.052-9.395-16.1-14.665-23.864.108-5.6,10.461-1.372,21.088,2.383,28.105a71.815,71.815,0,0,0-7.353-7.609c-8.24-7.969-20.2-13.768-32.167-12.855-9.169.223-18.251,4.8-22.914,11.98-4.754,7.043-6.066,15.274-3.844,21.96a12.931,12.931,0,0,0,.825,1.931c2.137,4.792,9.921,10.855,17.033,7.091,3.717-1.536,4.4-6.6,3.317-8.26-.792-1.96-1.7-2.691-1.994-2.547-.907-.168,1.622,6.13-3.058,7.281-4.24,1.476-8.958-3-10.352-6.105a10.345,10.345,0,0,1-.578-1.283c-1.625-4.411-1.24-11.589,2.38-17.67C49.483,24.992,56.911,20.4,65.388,19.848c11.106-1.232,22.4,3.707,30.759,11.24,8.766,7.211,14.527,16.7,21.6,23.27,13.718,12.407,27.828,12.317,29.227,12.239-1.4.051-15.5-.286-28.621-12.888M99.9,37.344S97.68,60.552,111.443,64.169c0,0-11.663,7.344-4.9,17.493,0,0-4.781-12.127,30.2-13.876,0,0-24.84-3.617-36.853-30.442M164.8,28.175c-8.916-6.848-22.283-3.758-27.5,2.889,0,0-9.139,11.452.98,13.411,7.665,1.628,8.905-18.867,23.313-11.243A13.875,13.875,0,0,1,168.851,46c-.316,5.6-2.391,10.949-5.692,14.388a21.46,21.46,0,0,1-14.823,6.12,22.256,22.256,0,0,0,16.044-4.831c4.034-3.382,7.019-9,8.129-15.253A18.937,18.937,0,0,0,164.8,28.175" transform="translate(0 0)"/><path class="a" d="M371.282,99.92c13.468-4.187,24.909-11.769,35.6-18.431,10.765-6.6,21.653-11.712,32.293-14.1,21.545-5.321,39.916,3.153,47.825,11.84-7.473-9.048-26.045-18.23-48.1-13.106-10.865,2.278-21.985,7.372-32.87,13.943-10.825,6.653-22.087,14.042-35.272,18.143-6.527,1.992-13.326,3.093-19.727,1.957-6.568-.757-11.384-5.747-13.591-11.456-4.845-11.706.812-24.7,9.88-30.414,18.776-11.436,38.932-8.376,49.463-3.934a55,55,0,0,0-50.194,2.865c-9.533,5.781-15.807,19.568-10.7,32.094,2.2,6.061,7.74,11.764,14.817,12.575,6.831,1.227,13.883.063,20.578-1.975" transform="translate(-11.44 -1.7)"/><path class="a" d="M335.074,75.817s-.659-11.465,5.959-26.475,8.077-24.234-.384-27.347c0,0,15.394-2.8,16.029,16.407A19.141,19.141,0,0,1,369.9,33.061c8.27,0,17.682,6.613,28.749,6.613,0,0-65.68,1.34-63.579,36.143" transform="translate(-11.473 -0.748)"/><path class="a" d="M404.176,30.008c1.561-.057,3.836-.715,4.97,1.332,3.742,7.074-9.17,8.4-9.147,8.424,0-.034,7.1,1.43,10.81-2.712a7.9,7.9,0,0,0,1.148-6.741c-.958-4.133-5.6-5.909-7.78-5.831l-.367-.014c-1.906-.037-5.077.928-4.61,2.467.935,3.645,4.977,3.076,4.977,3.076" transform="translate(-13.669 -0.838)"/><path class="a" d="M419.7,22.871c.481-2.738,1.134-7.226,5.481-8.162,2.663-.5,6.117-.045,8.18,1.942,2.146,1.978,3.015,5.057,3.195,7.659a29.309,29.309,0,0,1-.773,9.025,30.358,30.358,0,0,0,1.657-9.055,12.97,12.97,0,0,0-2.76-8.914c-2.426-2.785-6.3-3.818-9.92-3.623-6.353.331-9.882,6.633-10.47,9.976,0,0-1.65,7.367,1.19,8.425,3.5,1.137,4.22-7.275,4.22-7.275" transform="translate(-14.171 -0.401)"/><path class="a" d="M398.712,81.234s2.709-16.3-6.046-23.779-25.4-8.438-34.745-5.162c0,0,10.672-6.033,27.714-4.747s40.424,5.848,48.548-14.565c0,0,.5,12.981-16.943,20.114,0,0,6.739,4.161,5.152,13.772,0,0-9.413,1.485-15.16-4.26,0,0,3.368,13.376-8.52,18.627" transform="translate(-12.257 -1.129)"/><path class="a" d="M303.193,101.22s4.836-11.378,12.332-11.378,17.541,8.816,24.368,11.946,20.656,5.972,35.317-3.746c0,0-18.341,7.446-31.145-2.321,0,0-8.627-6.734-2.937-12.422,0,0,3.13-3.226,10.525,0s20.768,5.405,23.139-8.439c0,0-6.352,5.12-11,5.12s-14.7-9.577-24.467-5.5a12.963,12.963,0,0,0-6.445,13.183s-6.83-6.356-15.175-6.356-15.268,5.309-14.51,19.913" transform="translate(-10.381 -2.516)"/><path class="a" d="M463.579,88.3a7.705,7.705,0,0,1,5.371,4.215,8.292,8.292,0,0,0,12.1,2.787c4.549-3.331,5.64-14.273-5.1-21.067s-18-4.062-18-4.062a22.986,22.986,0,0,1,18.413,7.393S481.384,83,476.9,88.1c0,0-2.176,2.378-4.752.679s-5.033-2.651-8.567-.478" transform="translate(-15.682 -2.384)"/><path class="a" d="M536.587,17.512s9.022-.282,22.141,4.513,27.353,9.869,34.688-2.683c0,0-5.922,19.6-32.01,15.088,0,0,6.063,16.5-9.028,29.759,0,0,18.053-36.666-15.791-46.677M446.338,66.585c-.031,0,.008.006.1.013-.1,0-.135-.007-.1-.013M475.066,53.71A98.538,98.538,0,0,0,483.331,44a56.3,56.3,0,0,0,3.04-6.139c3.217-6.92,5.141-19.035-.091-25.053-7.119-7.119-7.54,7.494-10.227,8.729-2.35,1.534-10.615-2.507-8.843-12.427,2.053-9.395,16.1-14.665,23.863.108,5.595,10.461,1.372,21.088-2.381,28.105a71.421,71.421,0,0,1,7.353-7.609c8.241-7.969,20.2-13.768,32.166-12.855,9.169.223,18.252,4.8,22.919,11.98,4.75,7.043,6.061,15.274,3.839,21.96a12.855,12.855,0,0,1-.826,1.931c-2.134,4.792-9.921,10.855-17.027,7.091-3.722-1.536-4.405-6.6-3.326-8.26.795-1.96,1.706-2.691,2-2.547.908-.168-1.617,6.13,3.061,7.281,4.238,1.476,8.955-3,10.349-6.105a10.177,10.177,0,0,0,.578-1.283c1.627-4.411,1.242-11.589-2.378-17.67-3.463-6.244-10.891-10.838-19.368-11.387-11.105-1.232-22.4,3.707-30.763,11.24-8.765,7.211-14.522,16.7-21.6,23.27C461.955,66.766,447.841,66.676,446.442,66.6c1.4.051,15.5-.286,28.623-12.888M493.52,37.344s2.218,23.208-11.547,26.825c0,0,11.663,7.344,4.9,17.493,0,0,4.777-12.127-30.206-13.876,0,0,24.837-3.617,36.853-30.442m-64.9-9.169c8.917-6.848,22.281-3.758,27.5,2.889,0,0,9.135,11.452-.981,13.411-7.665,1.628-8.9-18.867-23.312-11.243A13.88,13.88,0,0,0,424.567,46c.313,5.6,2.392,10.949,5.69,14.388a21.458,21.458,0,0,0,14.824,6.12,22.256,22.256,0,0,1-16.044-4.831c-4.035-3.382-7.023-9-8.126-15.253a18.928,18.928,0,0,1,7.7-18.248" transform="translate(-14.405 0)"/></g></svg>